<?xml version="1.0" encoding="utf-8" standalone="no"?>
<!DOCTYPE svg PUBLIC "-//W3C//DTD SVG 1.1//EN"
  "http://www.w3.org/Graphics/SVG/1.1/DTD/svg11.dtd">
<!-- Created with matplotlib (https://matplotlib.org/) -->
<svg height="864pt" version="1.1" viewBox="0 0 720 864" width="720pt" xmlns="http://www.w3.org/2000/svg" xmlns:xlink="http://www.w3.org/1999/xlink">
 <defs>
  <style type="text/css">
*{stroke-linecap:butt;stroke-linejoin:round;}
  </style>
 </defs>
 <g id="figure_1">
  <g id="patch_1">
   <path d="M 0 864 
L 720 864 
L 720 0 
L 0 0 
z
" style="fill:#ffffff;"/>
  </g>
  <g id="axes_1">
   <g id="patch_2">
    <path d="M 47.72 201.524 
L 699.705 201.524 
L 699.705 26.88 
L 47.72 26.88 
z
" style="fill:#ffffff;"/>
   </g>
   <g id="matplotlib.axis_1">
    <g id="xtick_1">
     <g id="line2d_1">
      <defs>
       <path d="M 0 0 
L 0 3.5 
" id="mfc30a6fd52" style="stroke:#000000;stroke-width:0.8;"/>
      </defs>
      <g>
       <use style="stroke:#000000;stroke-width:0.8;" x="47.72" xlink:href="#mfc30a6fd52" y="201.524"/>
      </g>
     </g>
    </g>
    <g id="xtick_2">
     <g id="line2d_2">
      <g>
       <use style="stroke:#000000;stroke-width:0.8;" x="239.480294" xlink:href="#mfc30a6fd52" y="201.524"/>
      </g>
     </g>
    </g>
    <g id="xtick_3">
     <g id="line2d_3">
      <g>
       <use style="stroke:#000000;stroke-width:0.8;" x="392.888529" xlink:href="#mfc30a6fd52" y="201.524"/>
      </g>
     </g>
    </g>
    <g id="xtick_4">
     <g id="line2d_4">
      <g>
       <use style="stroke:#000000;stroke-width:0.8;" x="546.296765" xlink:href="#mfc30a6fd52" y="201.524"/>
      </g>
     </g>
    </g>
    <g id="xtick_5">
     <g id="line2d_5">
      <g>
       <use style="stroke:#000000;stroke-width:0.8;" x="699.705" xlink:href="#mfc30a6fd52" y="201.524"/>
      </g>
     </g>
    </g>
    <g id="xtick_6">
     <g id="line2d_6">
      <defs>
       <path d="M 0 0 
L 0 2 
" id="m9f2aa1939a" style="stroke:#000000;stroke-width:0.6;"/>
      </defs>
      <g>
       <use style="stroke:#000000;stroke-width:0.6;" x="86.072059" xlink:href="#m9f2aa1939a" y="201.524"/>
      </g>
     </g>
    </g>
    <g id="xtick_7">
     <g id="line2d_7">
      <g>
       <use style="stroke:#000000;stroke-width:0.6;" x="124.424118" xlink:href="#m9f2aa1939a" y="201.524"/>
      </g>
     </g>
    </g>
    <g id="xtick_8">
     <g id="line2d_8">
      <g>
       <use style="stroke:#000000;stroke-width:0.6;" x="162.776176" xlink:href="#m9f2aa1939a" y="201.524"/>
      </g>
     </g>
    </g>
    <g id="xtick_9">
     <g id="line2d_9">
      <g>
       <use style="stroke:#000000;stroke-width:0.6;" x="201.128235" xlink:href="#m9f2aa1939a" y="201.524"/>
      </g>
     </g>
    </g>
    <g id="xtick_10">
     <g id="line2d_10">
      <g>
       <use style="stroke:#000000;stroke-width:0.6;" x="277.832353" xlink:href="#m9f2aa1939a" y="201.524"/>
      </g>
     </g>
    </g>
    <g id="xtick_11">
     <g id="line2d_11">
      <g>
       <use style="stroke:#000000;stroke-width:0.6;" x="316.184412" xlink:href="#m9f2aa1939a" y="201.524"/>
      </g>
     </g>
    </g>
    <g id="xtick_12">
     <g id="line2d_12">
      <g>
       <use style="stroke:#000000;stroke-width:0.6;" x="354.536471" xlink:href="#m9f2aa1939a" y="201.524"/>
      </g>
     </g>
    </g>
    <g id="xtick_13">
     <g id="line2d_13">
      <g>
       <use style="stroke:#000000;stroke-width:0.6;" x="431.240588" xlink:href="#m9f2aa1939a" y="201.524"/>
      </g>
     </g>
    </g>
    <g id="xtick_14">
     <g id="line2d_14">
      <g>
       <use style="stroke:#000000;stroke-width:0.6;" x="469.592647" xlink:href="#m9f2aa1939a" y="201.524"/>
      </g>
     </g>
    </g>
    <g id="xtick_15">
     <g id="line2d_15">
      <g>
       <use style="stroke:#000000;stroke-width:0.6;" x="507.944706" xlink:href="#m9f2aa1939a" y="201.524"/>
      </g>
     </g>
    </g>
    <g id="xtick_16">
     <g id="line2d_16">
      <g>
       <use style="stroke:#000000;stroke-width:0.6;" x="584.648824" xlink:href="#m9f2aa1939a" y="201.524"/>
      </g>
     </g>
    </g>
    <g id="xtick_17">
     <g id="line2d_17">
      <g>
       <use style="stroke:#000000;stroke-width:0.6;" x="623.000882" xlink:href="#m9f2aa1939a" y="201.524"/>
      </g>
     </g>
    </g>
    <g id="xtick_18">
     <g id="line2d_18">
      <g>
       <use style="stroke:#000000;stroke-width:0.6;" x="661.352941" xlink:href="#m9f2aa1939a" y="201.524"/>
      </g>
     </g>
    </g>
   </g>
   <g id="matplotlib.axis_2">
    <g id="ytick_1">
     <g id="line2d_19">
      <path clip-path="url(#p34bb1e9d92)" d="M 47.72 201.524 
L 699.705 201.524 
" style="fill:none;stroke:#666666;stroke-linecap:square;stroke-opacity:0.2;stroke-width:0.8;"/>
     </g>
     <g id="line2d_20">
      <defs>
       <path d="M 0 0 
L -3.5 0 
" id="mfcb35800e2" style="stroke:#000000;stroke-width:0.8;"/>
      </defs>
      <g>
       <use style="stroke:#000000;stroke-width:0.8;" x="47.72" xlink:href="#mfcb35800e2" y="201.524"/>
      </g>
     </g>
     <g id="text_1">
      <!-- 0.0 -->
      <defs>
       <path d="M 31.78125 66.40625 
Q 24.171875 66.40625 20.328125 58.90625 
Q 16.5 51.421875 16.5 36.375 
Q 16.5 21.390625 20.328125 13.890625 
Q 24.171875 6.390625 31.78125 6.390625 
Q 39.453125 6.390625 43.28125 13.890625 
Q 47.125 21.390625 47.125 36.375 
Q 47.125 51.421875 43.28125 58.90625 
Q 39.453125 66.40625 31.78125 66.40625 
z
M 31.78125 74.21875 
Q 44.046875 74.21875 50.515625 64.515625 
Q 56.984375 54.828125 56.984375 36.375 
Q 56.984375 17.96875 50.515625 8.265625 
Q 44.046875 -1.421875 31.78125 -1.421875 
Q 19.53125 -1.421875 13.0625 8.265625 
Q 6.59375 17.96875 6.59375 36.375 
Q 6.59375 54.828125 13.0625 64.515625 
Q 19.53125 74.21875 31.78125 74.21875 
z
" id="DejaVuSans-48"/>
       <path d="M 10.6875 12.40625 
L 21 12.40625 
L 21 0 
L 10.6875 0 
z
" id="DejaVuSans-46"/>
      </defs>
      <g transform="translate(24.816875 205.323219)scale(0.1 -0.1)">
       <use xlink:href="#DejaVuSans-48"/>
       <use x="63.623047" xlink:href="#DejaVuSans-46"/>
       <use x="95.410156" xlink:href="#DejaVuSans-48"/>
      </g>
     </g>
    </g>
    <g id="ytick_2">
     <g id="line2d_21">
      <path clip-path="url(#p34bb1e9d92)" d="M 47.72 161.588774 
L 699.705 161.588774 
" style="fill:none;stroke:#666666;stroke-linecap:square;stroke-opacity:0.2;stroke-width:0.8;"/>
     </g>
     <g id="line2d_22">
      <g>
       <use style="stroke:#000000;stroke-width:0.8;" x="47.72" xlink:href="#mfcb35800e2" y="161.588774"/>
      </g>
     </g>
     <g id="text_2">
      <!-- 0.5 -->
      <defs>
       <path d="M 10.796875 72.90625 
L 49.515625 72.90625 
L 49.515625 64.59375 
L 19.828125 64.59375 
L 19.828125 46.734375 
Q 21.96875 47.46875 24.109375 47.828125 
Q 26.265625 48.1875 28.421875 48.1875 
Q 40.625 48.1875 47.75 41.5 
Q 54.890625 34.8125 54.890625 23.390625 
Q 54.890625 11.625 47.5625 5.09375 
Q 40.234375 -1.421875 26.90625 -1.421875 
Q 22.3125 -1.421875 17.546875 -0.640625 
Q 12.796875 0.140625 7.71875 1.703125 
L 7.71875 11.625 
Q 12.109375 9.234375 16.796875 8.0625 
Q 21.484375 6.890625 26.703125 6.890625 
Q 35.15625 6.890625 40.078125 11.328125 
Q 45.015625 15.765625 45.015625 23.390625 
Q 45.015625 31 40.078125 35.4375 
Q 35.15625 39.890625 26.703125 39.890625 
Q 22.75 39.890625 18.8125 39.015625 
Q 14.890625 38.140625 10.796875 36.28125 
z
" id="DejaVuSans-53"/>
      </defs>
      <g transform="translate(24.816875 165.387993)scale(0.1 -0.1)">
       <use xlink:href="#DejaVuSans-48"/>
       <use x="63.623047" xlink:href="#DejaVuSans-46"/>
       <use x="95.410156" xlink:href="#DejaVuSans-53"/>
      </g>
     </g>
    </g>
    <g id="ytick_3">
     <g id="line2d_23">
      <path clip-path="url(#p34bb1e9d92)" d="M 47.72 121.653548 
L 699.705 121.653548 
" style="fill:none;stroke:#666666;stroke-linecap:square;stroke-opacity:0.2;stroke-width:0.8;"/>
     </g>
     <g id="line2d_24">
      <g>
       <use style="stroke:#000000;stroke-width:0.8;" x="47.72" xlink:href="#mfcb35800e2" y="121.653548"/>
      </g>
     </g>
     <g id="text_3">
      <!-- 1.0 -->
      <defs>
       <path d="M 12.40625 8.296875 
L 28.515625 8.296875 
L 28.515625 63.921875 
L 10.984375 60.40625 
L 10.984375 69.390625 
L 28.421875 72.90625 
L 38.28125 72.90625 
L 38.28125 8.296875 
L 54.390625 8.296875 
L 54.390625 0 
L 12.40625 0 
z
" id="DejaVuSans-49"/>
      </defs>
      <g transform="translate(24.816875 125.452767)scale(0.1 -0.1)">
       <use xlink:href="#DejaVuSans-49"/>
       <use x="63.623047" xlink:href="#DejaVuSans-46"/>
       <use x="95.410156" xlink:href="#DejaVuSans-48"/>
      </g>
     </g>
    </g>
    <g id="ytick_4">
     <g id="line2d_25">
      <path clip-path="url(#p34bb1e9d92)" d="M 47.72 81.718322 
L 699.705 81.718322 
" style="fill:none;stroke:#666666;stroke-linecap:square;stroke-opacity:0.2;stroke-width:0.8;"/>
     </g>
     <g id="line2d_26">
      <g>
       <use style="stroke:#000000;stroke-width:0.8;" x="47.72" xlink:href="#mfcb35800e2" y="81.718322"/>
      </g>
     </g>
     <g id="text_4">
      <!-- 1.5 -->
      <g transform="translate(24.816875 85.517541)scale(0.1 -0.1)">
       <use xlink:href="#DejaVuSans-49"/>
       <use x="63.623047" xlink:href="#DejaVuSans-46"/>
       <use x="95.410156" xlink:href="#DejaVuSans-53"/>
      </g>
     </g>
    </g>
    <g id="ytick_5">
     <g id="line2d_27">
      <path clip-path="url(#p34bb1e9d92)" d="M 47.72 41.783097 
L 699.705 41.783097 
" style="fill:none;stroke:#666666;stroke-linecap:square;stroke-opacity:0.2;stroke-width:0.8;"/>
     </g>
     <g id="line2d_28">
      <g>
       <use style="stroke:#000000;stroke-width:0.8;" x="47.72" xlink:href="#mfcb35800e2" y="41.783097"/>
      </g>
     </g>
     <g id="text_5">
      <!-- 2.0 -->
      <defs>
       <path d="M 19.1875 8.296875 
L 53.609375 8.296875 
L 53.609375 0 
L 7.328125 0 
L 7.328125 8.296875 
Q 12.9375 14.109375 22.625 23.890625 
Q 32.328125 33.6875 34.8125 36.53125 
Q 39.546875 41.84375 41.421875 45.53125 
Q 43.3125 49.21875 43.3125 52.78125 
Q 43.3125 58.59375 39.234375 62.25 
Q 35.15625 65.921875 28.609375 65.921875 
Q 23.96875 65.921875 18.8125 64.3125 
Q 13.671875 62.703125 7.8125 59.421875 
L 7.8125 69.390625 
Q 13.765625 71.78125 18.9375 73 
Q 24.125 74.21875 28.421875 74.21875 
Q 39.75 74.21875 46.484375 68.546875 
Q 53.21875 62.890625 53.21875 53.421875 
Q 53.21875 48.921875 51.53125 44.890625 
Q 49.859375 40.875 45.40625 35.40625 
Q 44.1875 33.984375 37.640625 27.21875 
Q 31.109375 20.453125 19.1875 8.296875 
z
" id="DejaVuSans-50"/>
      </defs>
      <g transform="translate(24.816875 45.582315)scale(0.1 -0.1)">
       <use xlink:href="#DejaVuSans-50"/>
       <use x="63.623047" xlink:href="#DejaVuSans-46"/>
       <use x="95.410156" xlink:href="#DejaVuSans-48"/>
      </g>
     </g>
    </g>
    <g id="text_6">
     <!-- Rate per 100,000 people -->
     <defs>
      <path d="M 44.390625 34.1875 
Q 47.5625 33.109375 50.5625 29.59375 
Q 53.5625 26.078125 56.59375 19.921875 
L 66.609375 0 
L 56 0 
L 46.6875 18.703125 
Q 43.0625 26.03125 39.671875 28.421875 
Q 36.28125 30.8125 30.421875 30.8125 
L 19.671875 30.8125 
L 19.671875 0 
L 9.8125 0 
L 9.8125 72.90625 
L 32.078125 72.90625 
Q 44.578125 72.90625 50.734375 67.671875 
Q 56.890625 62.453125 56.890625 51.90625 
Q 56.890625 45.015625 53.6875 40.46875 
Q 50.484375 35.9375 44.390625 34.1875 
z
M 19.671875 64.796875 
L 19.671875 38.921875 
L 32.078125 38.921875 
Q 39.203125 38.921875 42.84375 42.21875 
Q 46.484375 45.515625 46.484375 51.90625 
Q 46.484375 58.296875 42.84375 61.546875 
Q 39.203125 64.796875 32.078125 64.796875 
z
" id="DejaVuSans-82"/>
      <path d="M 34.28125 27.484375 
Q 23.390625 27.484375 19.1875 25 
Q 14.984375 22.515625 14.984375 16.5 
Q 14.984375 11.71875 18.140625 8.90625 
Q 21.296875 6.109375 26.703125 6.109375 
Q 34.1875 6.109375 38.703125 11.40625 
Q 43.21875 16.703125 43.21875 25.484375 
L 43.21875 27.484375 
z
M 52.203125 31.203125 
L 52.203125 0 
L 43.21875 0 
L 43.21875 8.296875 
Q 40.140625 3.328125 35.546875 0.953125 
Q 30.953125 -1.421875 24.3125 -1.421875 
Q 15.921875 -1.421875 10.953125 3.296875 
Q 6 8.015625 6 15.921875 
Q 6 25.140625 12.171875 29.828125 
Q 18.359375 34.515625 30.609375 34.515625 
L 43.21875 34.515625 
L 43.21875 35.40625 
Q 43.21875 41.609375 39.140625 45 
Q 35.0625 48.390625 27.6875 48.390625 
Q 23 48.390625 18.546875 47.265625 
Q 14.109375 46.140625 10.015625 43.890625 
L 10.015625 52.203125 
Q 14.9375 54.109375 19.578125 55.046875 
Q 24.21875 56 28.609375 56 
Q 40.484375 56 46.34375 49.84375 
Q 52.203125 43.703125 52.203125 31.203125 
z
" id="DejaVuSans-97"/>
      <path d="M 18.3125 70.21875 
L 18.3125 54.6875 
L 36.8125 54.6875 
L 36.8125 47.703125 
L 18.3125 47.703125 
L 18.3125 18.015625 
Q 18.3125 11.328125 20.140625 9.421875 
Q 21.96875 7.515625 27.59375 7.515625 
L 36.8125 7.515625 
L 36.8125 0 
L 27.59375 0 
Q 17.1875 0 13.234375 3.875 
Q 9.28125 7.765625 9.28125 18.015625 
L 9.28125 47.703125 
L 2.6875 47.703125 
L 2.6875 54.6875 
L 9.28125 54.6875 
L 9.28125 70.21875 
z
" id="DejaVuSans-116"/>
      <path d="M 56.203125 29.59375 
L 56.203125 25.203125 
L 14.890625 25.203125 
Q 15.484375 15.921875 20.484375 11.0625 
Q 25.484375 6.203125 34.421875 6.203125 
Q 39.59375 6.203125 44.453125 7.46875 
Q 49.3125 8.734375 54.109375 11.28125 
L 54.109375 2.78125 
Q 49.265625 0.734375 44.1875 -0.34375 
Q 39.109375 -1.421875 33.890625 -1.421875 
Q 20.796875 -1.421875 13.15625 6.1875 
Q 5.515625 13.8125 5.515625 26.8125 
Q 5.515625 40.234375 12.765625 48.109375 
Q 20.015625 56 32.328125 56 
Q 43.359375 56 49.78125 48.890625 
Q 56.203125 41.796875 56.203125 29.59375 
z
M 47.21875 32.234375 
Q 47.125 39.59375 43.09375 43.984375 
Q 39.0625 48.390625 32.421875 48.390625 
Q 24.90625 48.390625 20.390625 44.140625 
Q 15.875 39.890625 15.1875 32.171875 
z
" id="DejaVuSans-101"/>
      <path id="DejaVuSans-32"/>
      <path d="M 18.109375 8.203125 
L 18.109375 -20.796875 
L 9.078125 -20.796875 
L 9.078125 54.6875 
L 18.109375 54.6875 
L 18.109375 46.390625 
Q 20.953125 51.265625 25.265625 53.625 
Q 29.59375 56 35.59375 56 
Q 45.5625 56 51.78125 48.09375 
Q 58.015625 40.1875 58.015625 27.296875 
Q 58.015625 14.40625 51.78125 6.484375 
Q 45.5625 -1.421875 35.59375 -1.421875 
Q 29.59375 -1.421875 25.265625 0.953125 
Q 20.953125 3.328125 18.109375 8.203125 
z
M 48.6875 27.296875 
Q 48.6875 37.203125 44.609375 42.84375 
Q 40.53125 48.484375 33.40625 48.484375 
Q 26.265625 48.484375 22.1875 42.84375 
Q 18.109375 37.203125 18.109375 27.296875 
Q 18.109375 17.390625 22.1875 11.75 
Q 26.265625 6.109375 33.40625 6.109375 
Q 40.53125 6.109375 44.609375 11.75 
Q 48.6875 17.390625 48.6875 27.296875 
z
" id="DejaVuSans-112"/>
      <path d="M 41.109375 46.296875 
Q 39.59375 47.171875 37.8125 47.578125 
Q 36.03125 48 33.890625 48 
Q 26.265625 48 22.1875 43.046875 
Q 18.109375 38.09375 18.109375 28.8125 
L 18.109375 0 
L 9.078125 0 
L 9.078125 54.6875 
L 18.109375 54.6875 
L 18.109375 46.1875 
Q 20.953125 51.171875 25.484375 53.578125 
Q 30.03125 56 36.53125 56 
Q 37.453125 56 38.578125 55.875 
Q 39.703125 55.765625 41.0625 55.515625 
z
" id="DejaVuSans-114"/>
      <path d="M 11.71875 12.40625 
L 22.015625 12.40625 
L 22.015625 4 
L 14.015625 -11.625 
L 7.71875 -11.625 
L 11.71875 4 
z
" id="DejaVuSans-44"/>
      <path d="M 30.609375 48.390625 
Q 23.390625 48.390625 19.1875 42.75 
Q 14.984375 37.109375 14.984375 27.296875 
Q 14.984375 17.484375 19.15625 11.84375 
Q 23.34375 6.203125 30.609375 6.203125 
Q 37.796875 6.203125 41.984375 11.859375 
Q 46.1875 17.53125 46.1875 27.296875 
Q 46.1875 37.015625 41.984375 42.703125 
Q 37.796875 48.390625 30.609375 48.390625 
z
M 30.609375 56 
Q 42.328125 56 49.015625 48.375 
Q 55.71875 40.765625 55.71875 27.296875 
Q 55.71875 13.875 49.015625 6.21875 
Q 42.328125 -1.421875 30.609375 -1.421875 
Q 18.84375 -1.421875 12.171875 6.21875 
Q 5.515625 13.875 5.515625 27.296875 
Q 5.515625 40.765625 12.171875 48.375 
Q 18.84375 56 30.609375 56 
z
" id="DejaVuSans-111"/>
      <path d="M 9.421875 75.984375 
L 18.40625 75.984375 
L 18.40625 0 
L 9.421875 0 
z
" id="DejaVuSans-108"/>
     </defs>
     <g transform="translate(18.737187 176.475437)rotate(-90)scale(0.1 -0.1)">
      <use xlink:href="#DejaVuSans-82"/>
      <use x="69.451172" xlink:href="#DejaVuSans-97"/>
      <use x="130.730469" xlink:href="#DejaVuSans-116"/>
      <use x="169.939453" xlink:href="#DejaVuSans-101"/>
      <use x="231.462891" xlink:href="#DejaVuSans-32"/>
      <use x="263.25" xlink:href="#DejaVuSans-112"/>
      <use x="326.726562" xlink:href="#DejaVuSans-101"/>
      <use x="388.25" xlink:href="#DejaVuSans-114"/>
      <use x="429.363281" xlink:href="#DejaVuSans-32"/>
      <use x="461.150391" xlink:href="#DejaVuSans-49"/>
      <use x="524.773438" xlink:href="#DejaVuSans-48"/>
      <use x="588.396484" xlink:href="#DejaVuSans-48"/>
      <use x="652.019531" xlink:href="#DejaVuSans-44"/>
      <use x="683.806641" xlink:href="#DejaVuSans-48"/>
      <use x="747.429688" xlink:href="#DejaVuSans-48"/>
      <use x="811.052734" xlink:href="#DejaVuSans-48"/>
      <use x="874.675781" xlink:href="#DejaVuSans-32"/>
      <use x="906.462891" xlink:href="#DejaVuSans-112"/>
      <use x="969.939453" xlink:href="#DejaVuSans-101"/>
      <use x="1031.462891" xlink:href="#DejaVuSans-111"/>
      <use x="1092.644531" xlink:href="#DejaVuSans-112"/>
      <use x="1156.121094" xlink:href="#DejaVuSans-108"/>
      <use x="1183.904297" xlink:href="#DejaVuSans-101"/>
     </g>
    </g>
   </g>
   <g id="line2d_29">
    <path clip-path="url(#p34bb1e9d92)" d="M 201.128235 198.529935 
L 239.480294 192.543059 
L 277.832353 184.894892 
L 316.184412 184.232358 
L 354.536471 188.223301 
L 392.888529 162.62626 
L 431.240588 156.985523 
L 469.592647 157.656416 
L 507.944706 127.399327 
L 546.296765 118.433032 
L 584.648824 97.828513 
L 623.000882 96.506443 
L 661.352941 35.053806 
L 699.705 117.462019 
" style="fill:none;stroke:#377eb8;stroke-linecap:square;stroke-width:1.5;"/>
   </g>
   <g id="patch_3">
    <path d="M 47.72 201.524 
L 47.72 26.88 
" style="fill:none;stroke:#000000;stroke-linecap:square;stroke-linejoin:miter;stroke-width:0.8;"/>
   </g>
   <g id="patch_4">
    <path d="M 699.705 201.524 
L 699.705 26.88 
" style="fill:none;stroke:#000000;stroke-linecap:square;stroke-linejoin:miter;stroke-width:0.8;"/>
   </g>
   <g id="patch_5">
    <path d="M 47.72 201.524 
L 699.705 201.524 
" style="fill:none;stroke:#000000;stroke-linecap:square;stroke-linejoin:miter;stroke-width:0.8;"/>
   </g>
   <g id="patch_6">
    <path d="M 47.72 26.88 
L 699.705 26.88 
" style="fill:none;stroke:#000000;stroke-linecap:square;stroke-linejoin:miter;stroke-width:0.8;"/>
   </g>
   <g id="text_7">
    <!-- a) Long-COVID rates stratified by all -->
    <defs>
     <path d="M 8.015625 75.875 
L 15.828125 75.875 
Q 23.140625 64.359375 26.78125 53.3125 
Q 30.421875 42.28125 30.421875 31.390625 
Q 30.421875 20.453125 26.78125 9.375 
Q 23.140625 -1.703125 15.828125 -13.1875 
L 8.015625 -13.1875 
Q 14.5 -2 17.703125 9.0625 
Q 20.90625 20.125 20.90625 31.390625 
Q 20.90625 42.671875 17.703125 53.65625 
Q 14.5 64.65625 8.015625 75.875 
z
" id="DejaVuSans-41"/>
     <path d="M 9.8125 72.90625 
L 19.671875 72.90625 
L 19.671875 8.296875 
L 55.171875 8.296875 
L 55.171875 0 
L 9.8125 0 
z
" id="DejaVuSans-76"/>
     <path d="M 54.890625 33.015625 
L 54.890625 0 
L 45.90625 0 
L 45.90625 32.71875 
Q 45.90625 40.484375 42.875 44.328125 
Q 39.84375 48.1875 33.796875 48.1875 
Q 26.515625 48.1875 22.3125 43.546875 
Q 18.109375 38.921875 18.109375 30.90625 
L 18.109375 0 
L 9.078125 0 
L 9.078125 54.6875 
L 18.109375 54.6875 
L 18.109375 46.1875 
Q 21.34375 51.125 25.703125 53.5625 
Q 30.078125 56 35.796875 56 
Q 45.21875 56 50.046875 50.171875 
Q 54.890625 44.34375 54.890625 33.015625 
z
" id="DejaVuSans-110"/>
     <path d="M 45.40625 27.984375 
Q 45.40625 37.75 41.375 43.109375 
Q 37.359375 48.484375 30.078125 48.484375 
Q 22.859375 48.484375 18.828125 43.109375 
Q 14.796875 37.75 14.796875 27.984375 
Q 14.796875 18.265625 18.828125 12.890625 
Q 22.859375 7.515625 30.078125 7.515625 
Q 37.359375 7.515625 41.375 12.890625 
Q 45.40625 18.265625 45.40625 27.984375 
z
M 54.390625 6.78125 
Q 54.390625 -7.171875 48.1875 -13.984375 
Q 42 -20.796875 29.203125 -20.796875 
Q 24.46875 -20.796875 20.265625 -20.09375 
Q 16.0625 -19.390625 12.109375 -17.921875 
L 12.109375 -9.1875 
Q 16.0625 -11.328125 19.921875 -12.34375 
Q 23.78125 -13.375 27.78125 -13.375 
Q 36.625 -13.375 41.015625 -8.765625 
Q 45.40625 -4.15625 45.40625 5.171875 
L 45.40625 9.625 
Q 42.625 4.78125 38.28125 2.390625 
Q 33.9375 0 27.875 0 
Q 17.828125 0 11.671875 7.65625 
Q 5.515625 15.328125 5.515625 27.984375 
Q 5.515625 40.671875 11.671875 48.328125 
Q 17.828125 56 27.875 56 
Q 33.9375 56 38.28125 53.609375 
Q 42.625 51.21875 45.40625 46.390625 
L 45.40625 54.6875 
L 54.390625 54.6875 
z
" id="DejaVuSans-103"/>
     <path d="M 4.890625 31.390625 
L 31.203125 31.390625 
L 31.203125 23.390625 
L 4.890625 23.390625 
z
" id="DejaVuSans-45"/>
     <path d="M 64.40625 67.28125 
L 64.40625 56.890625 
Q 59.421875 61.53125 53.78125 63.8125 
Q 48.140625 66.109375 41.796875 66.109375 
Q 29.296875 66.109375 22.65625 58.46875 
Q 16.015625 50.828125 16.015625 36.375 
Q 16.015625 21.96875 22.65625 14.328125 
Q 29.296875 6.6875 41.796875 6.6875 
Q 48.140625 6.6875 53.78125 8.984375 
Q 59.421875 11.28125 64.40625 15.921875 
L 64.40625 5.609375 
Q 59.234375 2.09375 53.4375 0.328125 
Q 47.65625 -1.421875 41.21875 -1.421875 
Q 24.65625 -1.421875 15.125 8.703125 
Q 5.609375 18.84375 5.609375 36.375 
Q 5.609375 53.953125 15.125 64.078125 
Q 24.65625 74.21875 41.21875 74.21875 
Q 47.75 74.21875 53.53125 72.484375 
Q 59.328125 70.75 64.40625 67.28125 
z
" id="DejaVuSans-67"/>
     <path d="M 39.40625 66.21875 
Q 28.65625 66.21875 22.328125 58.203125 
Q 16.015625 50.203125 16.015625 36.375 
Q 16.015625 22.609375 22.328125 14.59375 
Q 28.65625 6.59375 39.40625 6.59375 
Q 50.140625 6.59375 56.421875 14.59375 
Q 62.703125 22.609375 62.703125 36.375 
Q 62.703125 50.203125 56.421875 58.203125 
Q 50.140625 66.21875 39.40625 66.21875 
z
M 39.40625 74.21875 
Q 54.734375 74.21875 63.90625 63.9375 
Q 73.09375 53.65625 73.09375 36.375 
Q 73.09375 19.140625 63.90625 8.859375 
Q 54.734375 -1.421875 39.40625 -1.421875 
Q 24.03125 -1.421875 14.8125 8.828125 
Q 5.609375 19.09375 5.609375 36.375 
Q 5.609375 53.65625 14.8125 63.9375 
Q 24.03125 74.21875 39.40625 74.21875 
z
" id="DejaVuSans-79"/>
     <path d="M 28.609375 0 
L 0.78125 72.90625 
L 11.078125 72.90625 
L 34.1875 11.53125 
L 57.328125 72.90625 
L 67.578125 72.90625 
L 39.796875 0 
z
" id="DejaVuSans-86"/>
     <path d="M 9.8125 72.90625 
L 19.671875 72.90625 
L 19.671875 0 
L 9.8125 0 
z
" id="DejaVuSans-73"/>
     <path d="M 19.671875 64.796875 
L 19.671875 8.109375 
L 31.59375 8.109375 
Q 46.6875 8.109375 53.6875 14.9375 
Q 60.6875 21.78125 60.6875 36.53125 
Q 60.6875 51.171875 53.6875 57.984375 
Q 46.6875 64.796875 31.59375 64.796875 
z
M 9.8125 72.90625 
L 30.078125 72.90625 
Q 51.265625 72.90625 61.171875 64.09375 
Q 71.09375 55.28125 71.09375 36.53125 
Q 71.09375 17.671875 61.125 8.828125 
Q 51.171875 0 30.078125 0 
L 9.8125 0 
z
" id="DejaVuSans-68"/>
     <path d="M 44.28125 53.078125 
L 44.28125 44.578125 
Q 40.484375 46.53125 36.375 47.5 
Q 32.28125 48.484375 27.875 48.484375 
Q 21.1875 48.484375 17.84375 46.4375 
Q 14.5 44.390625 14.5 40.28125 
Q 14.5 37.15625 16.890625 35.375 
Q 19.28125 33.59375 26.515625 31.984375 
L 29.59375 31.296875 
Q 39.15625 29.25 43.1875 25.515625 
Q 47.21875 21.78125 47.21875 15.09375 
Q 47.21875 7.46875 41.1875 3.015625 
Q 35.15625 -1.421875 24.609375 -1.421875 
Q 20.21875 -1.421875 15.453125 -0.5625 
Q 10.6875 0.296875 5.421875 2 
L 5.421875 11.28125 
Q 10.40625 8.6875 15.234375 7.390625 
Q 20.0625 6.109375 24.8125 6.109375 
Q 31.15625 6.109375 34.5625 8.28125 
Q 37.984375 10.453125 37.984375 14.40625 
Q 37.984375 18.0625 35.515625 20.015625 
Q 33.0625 21.96875 24.703125 23.78125 
L 21.578125 24.515625 
Q 13.234375 26.265625 9.515625 29.90625 
Q 5.8125 33.546875 5.8125 39.890625 
Q 5.8125 47.609375 11.28125 51.796875 
Q 16.75 56 26.8125 56 
Q 31.78125 56 36.171875 55.265625 
Q 40.578125 54.546875 44.28125 53.078125 
z
" id="DejaVuSans-115"/>
     <path d="M 9.421875 54.6875 
L 18.40625 54.6875 
L 18.40625 0 
L 9.421875 0 
z
M 9.421875 75.984375 
L 18.40625 75.984375 
L 18.40625 64.59375 
L 9.421875 64.59375 
z
" id="DejaVuSans-105"/>
     <path d="M 37.109375 75.984375 
L 37.109375 68.5 
L 28.515625 68.5 
Q 23.6875 68.5 21.796875 66.546875 
Q 19.921875 64.59375 19.921875 59.515625 
L 19.921875 54.6875 
L 34.71875 54.6875 
L 34.71875 47.703125 
L 19.921875 47.703125 
L 19.921875 0 
L 10.890625 0 
L 10.890625 47.703125 
L 2.296875 47.703125 
L 2.296875 54.6875 
L 10.890625 54.6875 
L 10.890625 58.5 
Q 10.890625 67.625 15.140625 71.796875 
Q 19.390625 75.984375 28.609375 75.984375 
z
" id="DejaVuSans-102"/>
     <path d="M 45.40625 46.390625 
L 45.40625 75.984375 
L 54.390625 75.984375 
L 54.390625 0 
L 45.40625 0 
L 45.40625 8.203125 
Q 42.578125 3.328125 38.25 0.953125 
Q 33.9375 -1.421875 27.875 -1.421875 
Q 17.96875 -1.421875 11.734375 6.484375 
Q 5.515625 14.40625 5.515625 27.296875 
Q 5.515625 40.1875 11.734375 48.09375 
Q 17.96875 56 27.875 56 
Q 33.9375 56 38.25 53.625 
Q 42.578125 51.265625 45.40625 46.390625 
z
M 14.796875 27.296875 
Q 14.796875 17.390625 18.875 11.75 
Q 22.953125 6.109375 30.078125 6.109375 
Q 37.203125 6.109375 41.296875 11.75 
Q 45.40625 17.390625 45.40625 27.296875 
Q 45.40625 37.203125 41.296875 42.84375 
Q 37.203125 48.484375 30.078125 48.484375 
Q 22.953125 48.484375 18.875 42.84375 
Q 14.796875 37.203125 14.796875 27.296875 
z
" id="DejaVuSans-100"/>
     <path d="M 48.6875 27.296875 
Q 48.6875 37.203125 44.609375 42.84375 
Q 40.53125 48.484375 33.40625 48.484375 
Q 26.265625 48.484375 22.1875 42.84375 
Q 18.109375 37.203125 18.109375 27.296875 
Q 18.109375 17.390625 22.1875 11.75 
Q 26.265625 6.109375 33.40625 6.109375 
Q 40.53125 6.109375 44.609375 11.75 
Q 48.6875 17.390625 48.6875 27.296875 
z
M 18.109375 46.390625 
Q 20.953125 51.265625 25.265625 53.625 
Q 29.59375 56 35.59375 56 
Q 45.5625 56 51.78125 48.09375 
Q 58.015625 40.1875 58.015625 27.296875 
Q 58.015625 14.40625 51.78125 6.484375 
Q 45.5625 -1.421875 35.59375 -1.421875 
Q 29.59375 -1.421875 25.265625 0.953125 
Q 20.953125 3.328125 18.109375 8.203125 
L 18.109375 0 
L 9.078125 0 
L 9.078125 75.984375 
L 18.109375 75.984375 
z
" id="DejaVuSans-98"/>
     <path d="M 32.171875 -5.078125 
Q 28.375 -14.84375 24.75 -17.8125 
Q 21.140625 -20.796875 15.09375 -20.796875 
L 7.90625 -20.796875 
L 7.90625 -13.28125 
L 13.1875 -13.28125 
Q 16.890625 -13.28125 18.9375 -11.515625 
Q 21 -9.765625 23.484375 -3.21875 
L 25.09375 0.875 
L 2.984375 54.6875 
L 12.5 54.6875 
L 29.59375 11.921875 
L 46.6875 54.6875 
L 56.203125 54.6875 
z
" id="DejaVuSans-121"/>
    </defs>
    <g transform="translate(47.72 20.88)scale(0.12 -0.12)">
     <use xlink:href="#DejaVuSans-97"/>
     <use x="61.279297" xlink:href="#DejaVuSans-41"/>
     <use x="100.292969" xlink:href="#DejaVuSans-32"/>
     <use x="132.080078" xlink:href="#DejaVuSans-76"/>
     <use x="187.777344" xlink:href="#DejaVuSans-111"/>
     <use x="248.958984" xlink:href="#DejaVuSans-110"/>
     <use x="312.337891" xlink:href="#DejaVuSans-103"/>
     <use x="375.814453" xlink:href="#DejaVuSans-45"/>
     <use x="411.898438" xlink:href="#DejaVuSans-67"/>
     <use x="481.722656" xlink:href="#DejaVuSans-79"/>
     <use x="560.417969" xlink:href="#DejaVuSans-86"/>
     <use x="628.826172" xlink:href="#DejaVuSans-73"/>
     <use x="658.318359" xlink:href="#DejaVuSans-68"/>
     <use x="735.320312" xlink:href="#DejaVuSans-32"/>
     <use x="767.107422" xlink:href="#DejaVuSans-114"/>
     <use x="808.220703" xlink:href="#DejaVuSans-97"/>
     <use x="869.5" xlink:href="#DejaVuSans-116"/>
     <use x="908.708984" xlink:href="#DejaVuSans-101"/>
     <use x="970.232422" xlink:href="#DejaVuSans-115"/>
     <use x="1022.332031" xlink:href="#DejaVuSans-32"/>
     <use x="1054.119141" xlink:href="#DejaVuSans-115"/>
     <use x="1106.21875" xlink:href="#DejaVuSans-116"/>
     <use x="1145.427734" xlink:href="#DejaVuSans-114"/>
     <use x="1186.541016" xlink:href="#DejaVuSans-97"/>
     <use x="1247.820312" xlink:href="#DejaVuSans-116"/>
     <use x="1287.029297" xlink:href="#DejaVuSans-105"/>
     <use x="1314.8125" xlink:href="#DejaVuSans-102"/>
     <use x="1350.017578" xlink:href="#DejaVuSans-105"/>
     <use x="1377.800781" xlink:href="#DejaVuSans-101"/>
     <use x="1439.324219" xlink:href="#DejaVuSans-100"/>
     <use x="1502.800781" xlink:href="#DejaVuSans-32"/>
     <use x="1534.587891" xlink:href="#DejaVuSans-98"/>
     <use x="1598.064453" xlink:href="#DejaVuSans-121"/>
     <use x="1657.244141" xlink:href="#DejaVuSans-32"/>
     <use x="1689.03125" xlink:href="#DejaVuSans-97"/>
     <use x="1750.310547" xlink:href="#DejaVuSans-108"/>
     <use x="1778.09375" xlink:href="#DejaVuSans-108"/>
    </g>
   </g>
   <g id="legend_1">
    <g id="patch_7">
     <path d="M 54.02 197.024 
L 133.553281 197.024 
Q 135.353281 197.024 135.353281 195.224 
L 135.353281 182.913687 
Q 135.353281 181.113687 133.553281 181.113687 
L 54.02 181.113687 
Q 52.22 181.113687 52.22 182.913687 
L 52.22 195.224 
Q 52.22 197.024 54.02 197.024 
z
" style="fill:#ffffff;opacity:0.8;stroke:#cccccc;stroke-linejoin:miter;"/>
    </g>
    <g id="line2d_30">
     <path d="M 55.82 188.402281 
L 73.82 188.402281 
" style="fill:none;stroke:#377eb8;stroke-linecap:square;stroke-width:1.5;"/>
    </g>
    <g id="line2d_31"/>
    <g id="text_8">
     <!-- All patients -->
     <defs>
      <path d="M 34.1875 63.1875 
L 20.796875 26.90625 
L 47.609375 26.90625 
z
M 28.609375 72.90625 
L 39.796875 72.90625 
L 67.578125 0 
L 57.328125 0 
L 50.6875 18.703125 
L 17.828125 18.703125 
L 11.1875 0 
L 0.78125 0 
z
" id="DejaVuSans-65"/>
     </defs>
     <g transform="translate(81.02 191.552281)scale(0.09 -0.09)">
      <use xlink:href="#DejaVuSans-65"/>
      <use x="68.408203" xlink:href="#DejaVuSans-108"/>
      <use x="96.191406" xlink:href="#DejaVuSans-108"/>
      <use x="123.974609" xlink:href="#DejaVuSans-32"/>
      <use x="155.761719" xlink:href="#DejaVuSans-112"/>
      <use x="219.238281" xlink:href="#DejaVuSans-97"/>
      <use x="280.517578" xlink:href="#DejaVuSans-116"/>
      <use x="319.726562" xlink:href="#DejaVuSans-105"/>
      <use x="347.509766" xlink:href="#DejaVuSans-101"/>
      <use x="409.033203" xlink:href="#DejaVuSans-110"/>
      <use x="472.412109" xlink:href="#DejaVuSans-116"/>
      <use x="511.621094" xlink:href="#DejaVuSans-115"/>
     </g>
    </g>
   </g>
  </g>
  <g id="axes_2">
   <g id="patch_8">
    <path d="M 47.72 409.168 
L 699.705 409.168 
L 699.705 234.524 
L 47.72 234.524 
z
" style="fill:#ffffff;"/>
   </g>
   <g id="matplotlib.axis_3">
    <g id="xtick_19">
     <g id="line2d_32">
      <g>
       <use style="stroke:#000000;stroke-width:0.8;" x="47.72" xlink:href="#mfc30a6fd52" y="409.168"/>
      </g>
     </g>
    </g>
    <g id="xtick_20">
     <g id="line2d_33">
      <g>
       <use style="stroke:#000000;stroke-width:0.8;" x="239.480294" xlink:href="#mfc30a6fd52" y="409.168"/>
      </g>
     </g>
    </g>
    <g id="xtick_21">
     <g id="line2d_34">
      <g>
       <use style="stroke:#000000;stroke-width:0.8;" x="392.888529" xlink:href="#mfc30a6fd52" y="409.168"/>
      </g>
     </g>
    </g>
    <g id="xtick_22">
     <g id="line2d_35">
      <g>
       <use style="stroke:#000000;stroke-width:0.8;" x="546.296765" xlink:href="#mfc30a6fd52" y="409.168"/>
      </g>
     </g>
    </g>
    <g id="xtick_23">
     <g id="line2d_36">
      <g>
       <use style="stroke:#000000;stroke-width:0.8;" x="699.705" xlink:href="#mfc30a6fd52" y="409.168"/>
      </g>
     </g>
    </g>
    <g id="xtick_24">
     <g id="line2d_37">
      <g>
       <use style="stroke:#000000;stroke-width:0.6;" x="86.072059" xlink:href="#m9f2aa1939a" y="409.168"/>
      </g>
     </g>
    </g>
    <g id="xtick_25">
     <g id="line2d_38">
      <g>
       <use style="stroke:#000000;stroke-width:0.6;" x="124.424118" xlink:href="#m9f2aa1939a" y="409.168"/>
      </g>
     </g>
    </g>
    <g id="xtick_26">
     <g id="line2d_39">
      <g>
       <use style="stroke:#000000;stroke-width:0.6;" x="162.776176" xlink:href="#m9f2aa1939a" y="409.168"/>
      </g>
     </g>
    </g>
    <g id="xtick_27">
     <g id="line2d_40">
      <g>
       <use style="stroke:#000000;stroke-width:0.6;" x="201.128235" xlink:href="#m9f2aa1939a" y="409.168"/>
      </g>
     </g>
    </g>
    <g id="xtick_28">
     <g id="line2d_41">
      <g>
       <use style="stroke:#000000;stroke-width:0.6;" x="277.832353" xlink:href="#m9f2aa1939a" y="409.168"/>
      </g>
     </g>
    </g>
    <g id="xtick_29">
     <g id="line2d_42">
      <g>
       <use style="stroke:#000000;stroke-width:0.6;" x="316.184412" xlink:href="#m9f2aa1939a" y="409.168"/>
      </g>
     </g>
    </g>
    <g id="xtick_30">
     <g id="line2d_43">
      <g>
       <use style="stroke:#000000;stroke-width:0.6;" x="354.536471" xlink:href="#m9f2aa1939a" y="409.168"/>
      </g>
     </g>
    </g>
    <g id="xtick_31">
     <g id="line2d_44">
      <g>
       <use style="stroke:#000000;stroke-width:0.6;" x="431.240588" xlink:href="#m9f2aa1939a" y="409.168"/>
      </g>
     </g>
    </g>
    <g id="xtick_32">
     <g id="line2d_45">
      <g>
       <use style="stroke:#000000;stroke-width:0.6;" x="469.592647" xlink:href="#m9f2aa1939a" y="409.168"/>
      </g>
     </g>
    </g>
    <g id="xtick_33">
     <g id="line2d_46">
      <g>
       <use style="stroke:#000000;stroke-width:0.6;" x="507.944706" xlink:href="#m9f2aa1939a" y="409.168"/>
      </g>
     </g>
    </g>
    <g id="xtick_34">
     <g id="line2d_47">
      <g>
       <use style="stroke:#000000;stroke-width:0.6;" x="584.648824" xlink:href="#m9f2aa1939a" y="409.168"/>
      </g>
     </g>
    </g>
    <g id="xtick_35">
     <g id="line2d_48">
      <g>
       <use style="stroke:#000000;stroke-width:0.6;" x="623.000882" xlink:href="#m9f2aa1939a" y="409.168"/>
      </g>
     </g>
    </g>
    <g id="xtick_36">
     <g id="line2d_49">
      <g>
       <use style="stroke:#000000;stroke-width:0.6;" x="661.352941" xlink:href="#m9f2aa1939a" y="409.168"/>
      </g>
     </g>
    </g>
   </g>
   <g id="matplotlib.axis_4">
    <g id="ytick_6">
     <g id="line2d_50">
      <path clip-path="url(#p4fca1a83ef)" d="M 47.72 409.168 
L 699.705 409.168 
" style="fill:none;stroke:#666666;stroke-linecap:square;stroke-opacity:0.2;stroke-width:0.8;"/>
     </g>
     <g id="line2d_51">
      <g>
       <use style="stroke:#000000;stroke-width:0.8;" x="47.72" xlink:href="#mfcb35800e2" y="409.168"/>
      </g>
     </g>
     <g id="text_9">
      <!-- 0.0 -->
      <g transform="translate(24.816875 412.967219)scale(0.1 -0.1)">
       <use xlink:href="#DejaVuSans-48"/>
       <use x="63.623047" xlink:href="#DejaVuSans-46"/>
       <use x="95.410156" xlink:href="#DejaVuSans-48"/>
      </g>
     </g>
    </g>
    <g id="ytick_7">
     <g id="line2d_52">
      <path clip-path="url(#p4fca1a83ef)" d="M 47.72 376.061869 
L 699.705 376.061869 
" style="fill:none;stroke:#666666;stroke-linecap:square;stroke-opacity:0.2;stroke-width:0.8;"/>
     </g>
     <g id="line2d_53">
      <g>
       <use style="stroke:#000000;stroke-width:0.8;" x="47.72" xlink:href="#mfcb35800e2" y="376.061869"/>
      </g>
     </g>
     <g id="text_10">
      <!-- 0.5 -->
      <g transform="translate(24.816875 379.861087)scale(0.1 -0.1)">
       <use xlink:href="#DejaVuSans-48"/>
       <use x="63.623047" xlink:href="#DejaVuSans-46"/>
       <use x="95.410156" xlink:href="#DejaVuSans-53"/>
      </g>
     </g>
    </g>
    <g id="ytick_8">
     <g id="line2d_54">
      <path clip-path="url(#p4fca1a83ef)" d="M 47.72 342.955737 
L 699.705 342.955737 
" style="fill:none;stroke:#666666;stroke-linecap:square;stroke-opacity:0.2;stroke-width:0.8;"/>
     </g>
     <g id="line2d_55">
      <g>
       <use style="stroke:#000000;stroke-width:0.8;" x="47.72" xlink:href="#mfcb35800e2" y="342.955737"/>
      </g>
     </g>
     <g id="text_11">
      <!-- 1.0 -->
      <g transform="translate(24.816875 346.754956)scale(0.1 -0.1)">
       <use xlink:href="#DejaVuSans-49"/>
       <use x="63.623047" xlink:href="#DejaVuSans-46"/>
       <use x="95.410156" xlink:href="#DejaVuSans-48"/>
      </g>
     </g>
    </g>
    <g id="ytick_9">
     <g id="line2d_56">
      <path clip-path="url(#p4fca1a83ef)" d="M 47.72 309.849606 
L 699.705 309.849606 
" style="fill:none;stroke:#666666;stroke-linecap:square;stroke-opacity:0.2;stroke-width:0.8;"/>
     </g>
     <g id="line2d_57">
      <g>
       <use style="stroke:#000000;stroke-width:0.8;" x="47.72" xlink:href="#mfcb35800e2" y="309.849606"/>
      </g>
     </g>
     <g id="text_12">
      <!-- 1.5 -->
      <g transform="translate(24.816875 313.648824)scale(0.1 -0.1)">
       <use xlink:href="#DejaVuSans-49"/>
       <use x="63.623047" xlink:href="#DejaVuSans-46"/>
       <use x="95.410156" xlink:href="#DejaVuSans-53"/>
      </g>
     </g>
    </g>
    <g id="ytick_10">
     <g id="line2d_58">
      <path clip-path="url(#p4fca1a83ef)" d="M 47.72 276.743474 
L 699.705 276.743474 
" style="fill:none;stroke:#666666;stroke-linecap:square;stroke-opacity:0.2;stroke-width:0.8;"/>
     </g>
     <g id="line2d_59">
      <g>
       <use style="stroke:#000000;stroke-width:0.8;" x="47.72" xlink:href="#mfcb35800e2" y="276.743474"/>
      </g>
     </g>
     <g id="text_13">
      <!-- 2.0 -->
      <g transform="translate(24.816875 280.542693)scale(0.1 -0.1)">
       <use xlink:href="#DejaVuSans-50"/>
       <use x="63.623047" xlink:href="#DejaVuSans-46"/>
       <use x="95.410156" xlink:href="#DejaVuSans-48"/>
      </g>
     </g>
    </g>
    <g id="ytick_11">
     <g id="line2d_60">
      <path clip-path="url(#p4fca1a83ef)" d="M 47.72 243.637343 
L 699.705 243.637343 
" style="fill:none;stroke:#666666;stroke-linecap:square;stroke-opacity:0.2;stroke-width:0.8;"/>
     </g>
     <g id="line2d_61">
      <g>
       <use style="stroke:#000000;stroke-width:0.8;" x="47.72" xlink:href="#mfcb35800e2" y="243.637343"/>
      </g>
     </g>
     <g id="text_14">
      <!-- 2.5 -->
      <g transform="translate(24.816875 247.436561)scale(0.1 -0.1)">
       <use xlink:href="#DejaVuSans-50"/>
       <use x="63.623047" xlink:href="#DejaVuSans-46"/>
       <use x="95.410156" xlink:href="#DejaVuSans-53"/>
      </g>
     </g>
    </g>
    <g id="text_15">
     <!-- Rate per 100,000 people -->
     <g transform="translate(18.737187 384.119438)rotate(-90)scale(0.1 -0.1)">
      <use xlink:href="#DejaVuSans-82"/>
      <use x="69.451172" xlink:href="#DejaVuSans-97"/>
      <use x="130.730469" xlink:href="#DejaVuSans-116"/>
      <use x="169.939453" xlink:href="#DejaVuSans-101"/>
      <use x="231.462891" xlink:href="#DejaVuSans-32"/>
      <use x="263.25" xlink:href="#DejaVuSans-112"/>
      <use x="326.726562" xlink:href="#DejaVuSans-101"/>
      <use x="388.25" xlink:href="#DejaVuSans-114"/>
      <use x="429.363281" xlink:href="#DejaVuSans-32"/>
      <use x="461.150391" xlink:href="#DejaVuSans-49"/>
      <use x="524.773438" xlink:href="#DejaVuSans-48"/>
      <use x="588.396484" xlink:href="#DejaVuSans-48"/>
      <use x="652.019531" xlink:href="#DejaVuSans-44"/>
      <use x="683.806641" xlink:href="#DejaVuSans-48"/>
      <use x="747.429688" xlink:href="#DejaVuSans-48"/>
      <use x="811.052734" xlink:href="#DejaVuSans-48"/>
      <use x="874.675781" xlink:href="#DejaVuSans-32"/>
      <use x="906.462891" xlink:href="#DejaVuSans-112"/>
      <use x="969.939453" xlink:href="#DejaVuSans-101"/>
      <use x="1031.462891" xlink:href="#DejaVuSans-111"/>
      <use x="1092.644531" xlink:href="#DejaVuSans-112"/>
      <use x="1156.121094" xlink:href="#DejaVuSans-108"/>
      <use x="1183.904297" xlink:href="#DejaVuSans-101"/>
     </g>
    </g>
   </g>
   <g id="line2d_62">
    <path clip-path="url(#p4fca1a83ef)" d="M 201.128235 405.306491 
L 239.480294 397.584761 
L 277.832353 393.17409 
L 316.184412 394.27927 
L 354.536471 397.588183 
L 392.888529 374.43377 
L 431.240588 362.316482 
L 469.592647 367.834622 
L 507.944706 327.008364 
L 546.296765 325.360404 
L 584.648824 297.786337 
L 623.000882 303.307105 
L 661.352941 242.682837 
L 699.705 316.554092 
" style="fill:none;stroke:#377eb8;stroke-linecap:square;stroke-width:1.5;"/>
   </g>
   <g id="line2d_63">
    <path clip-path="url(#p4fca1a83ef)" d="M 239.480294 405.859575 
L 277.832353 397.590225 
L 316.184412 395.387135 
L 354.536471 398.695153 
L 392.888529 379.409006 
L 431.240588 382.170904 
L 469.592647 377.767296 
L 507.944706 368.40745 
L 546.296765 355.194745 
L 584.648824 348.591298 
L 623.000882 340.886704 
L 661.352941 299.609327 
L 699.705 362.375636 
" style="fill:none;stroke:#ff7f00;stroke-linecap:square;stroke-width:1.5;"/>
   </g>
   <g id="patch_9">
    <path d="M 47.72 409.168 
L 47.72 234.524 
" style="fill:none;stroke:#000000;stroke-linecap:square;stroke-linejoin:miter;stroke-width:0.8;"/>
   </g>
   <g id="patch_10">
    <path d="M 699.705 409.168 
L 699.705 234.524 
" style="fill:none;stroke:#000000;stroke-linecap:square;stroke-linejoin:miter;stroke-width:0.8;"/>
   </g>
   <g id="patch_11">
    <path d="M 47.72 409.168 
L 699.705 409.168 
" style="fill:none;stroke:#000000;stroke-linecap:square;stroke-linejoin:miter;stroke-width:0.8;"/>
   </g>
   <g id="patch_12">
    <path d="M 47.72 234.524 
L 699.705 234.524 
" style="fill:none;stroke:#000000;stroke-linecap:square;stroke-linejoin:miter;stroke-width:0.8;"/>
   </g>
   <g id="text_16">
    <!-- b) Long-COVID rates stratified by sex -->
    <defs>
     <path d="M 54.890625 54.6875 
L 35.109375 28.078125 
L 55.90625 0 
L 45.3125 0 
L 29.390625 21.484375 
L 13.484375 0 
L 2.875 0 
L 24.125 28.609375 
L 4.6875 54.6875 
L 15.28125 54.6875 
L 29.78125 35.203125 
L 44.28125 54.6875 
z
" id="DejaVuSans-120"/>
    </defs>
    <g transform="translate(47.72 228.524)scale(0.12 -0.12)">
     <use xlink:href="#DejaVuSans-98"/>
     <use x="63.476562" xlink:href="#DejaVuSans-41"/>
     <use x="102.490234" xlink:href="#DejaVuSans-32"/>
     <use x="134.277344" xlink:href="#DejaVuSans-76"/>
     <use x="189.974609" xlink:href="#DejaVuSans-111"/>
     <use x="251.15625" xlink:href="#DejaVuSans-110"/>
     <use x="314.535156" xlink:href="#DejaVuSans-103"/>
     <use x="378.011719" xlink:href="#DejaVuSans-45"/>
     <use x="414.095703" xlink:href="#DejaVuSans-67"/>
     <use x="483.919922" xlink:href="#DejaVuSans-79"/>
     <use x="562.615234" xlink:href="#DejaVuSans-86"/>
     <use x="631.023438" xlink:href="#DejaVuSans-73"/>
     <use x="660.515625" xlink:href="#DejaVuSans-68"/>
     <use x="737.517578" xlink:href="#DejaVuSans-32"/>
     <use x="769.304688" xlink:href="#DejaVuSans-114"/>
     <use x="810.417969" xlink:href="#DejaVuSans-97"/>
     <use x="871.697266" xlink:href="#DejaVuSans-116"/>
     <use x="910.90625" xlink:href="#DejaVuSans-101"/>
     <use x="972.429688" xlink:href="#DejaVuSans-115"/>
     <use x="1024.529297" xlink:href="#DejaVuSans-32"/>
     <use x="1056.316406" xlink:href="#DejaVuSans-115"/>
     <use x="1108.416016" xlink:href="#DejaVuSans-116"/>
     <use x="1147.625" xlink:href="#DejaVuSans-114"/>
     <use x="1188.738281" xlink:href="#DejaVuSans-97"/>
     <use x="1250.017578" xlink:href="#DejaVuSans-116"/>
     <use x="1289.226562" xlink:href="#DejaVuSans-105"/>
     <use x="1317.009766" xlink:href="#DejaVuSans-102"/>
     <use x="1352.214844" xlink:href="#DejaVuSans-105"/>
     <use x="1379.998047" xlink:href="#DejaVuSans-101"/>
     <use x="1441.521484" xlink:href="#DejaVuSans-100"/>
     <use x="1504.998047" xlink:href="#DejaVuSans-32"/>
     <use x="1536.785156" xlink:href="#DejaVuSans-98"/>
     <use x="1600.261719" xlink:href="#DejaVuSans-121"/>
     <use x="1659.441406" xlink:href="#DejaVuSans-32"/>
     <use x="1691.228516" xlink:href="#DejaVuSans-115"/>
     <use x="1743.328125" xlink:href="#DejaVuSans-101"/>
     <use x="1804.835938" xlink:href="#DejaVuSans-120"/>
    </g>
   </g>
   <g id="legend_2">
    <g id="patch_13">
     <path d="M 54.02 404.668 
L 90.585313 404.668 
Q 92.385312 404.668 92.385312 402.868 
L 92.385312 377.347375 
Q 92.385312 375.547375 90.585313 375.547375 
L 54.02 375.547375 
Q 52.22 375.547375 52.22 377.347375 
L 52.22 402.868 
Q 52.22 404.668 54.02 404.668 
z
" style="fill:#ffffff;opacity:0.8;stroke:#cccccc;stroke-linejoin:miter;"/>
    </g>
    <g id="line2d_64">
     <path d="M 55.82 382.835969 
L 73.82 382.835969 
" style="fill:none;stroke:#377eb8;stroke-linecap:square;stroke-width:1.5;"/>
    </g>
    <g id="line2d_65"/>
    <g id="text_17">
     <!-- F -->
     <defs>
      <path d="M 9.8125 72.90625 
L 51.703125 72.90625 
L 51.703125 64.59375 
L 19.671875 64.59375 
L 19.671875 43.109375 
L 48.578125 43.109375 
L 48.578125 34.8125 
L 19.671875 34.8125 
L 19.671875 0 
L 9.8125 0 
z
" id="DejaVuSans-70"/>
     </defs>
     <g transform="translate(81.02 385.985969)scale(0.09 -0.09)">
      <use xlink:href="#DejaVuSans-70"/>
     </g>
    </g>
    <g id="line2d_66">
     <path d="M 55.82 396.046281 
L 73.82 396.046281 
" style="fill:none;stroke:#ff7f00;stroke-linecap:square;stroke-width:1.5;"/>
    </g>
    <g id="line2d_67"/>
    <g id="text_18">
     <!-- M -->
     <defs>
      <path d="M 9.8125 72.90625 
L 24.515625 72.90625 
L 43.109375 23.296875 
L 61.8125 72.90625 
L 76.515625 72.90625 
L 76.515625 0 
L 66.890625 0 
L 66.890625 64.015625 
L 48.09375 14.015625 
L 38.1875 14.015625 
L 19.390625 64.015625 
L 19.390625 0 
L 9.8125 0 
z
" id="DejaVuSans-77"/>
     </defs>
     <g transform="translate(81.02 399.196281)scale(0.09 -0.09)">
      <use xlink:href="#DejaVuSans-77"/>
     </g>
    </g>
   </g>
  </g>
  <g id="axes_3">
   <g id="patch_14">
    <path d="M 47.72 616.812 
L 699.705 616.812 
L 699.705 442.168 
L 47.72 442.168 
z
" style="fill:#ffffff;"/>
   </g>
   <g id="matplotlib.axis_5">
    <g id="xtick_37">
     <g id="line2d_68">
      <g>
       <use style="stroke:#000000;stroke-width:0.8;" x="47.72" xlink:href="#mfc30a6fd52" y="616.812"/>
      </g>
     </g>
    </g>
    <g id="xtick_38">
     <g id="line2d_69">
      <g>
       <use style="stroke:#000000;stroke-width:0.8;" x="239.480294" xlink:href="#mfc30a6fd52" y="616.812"/>
      </g>
     </g>
    </g>
    <g id="xtick_39">
     <g id="line2d_70">
      <g>
       <use style="stroke:#000000;stroke-width:0.8;" x="392.888529" xlink:href="#mfc30a6fd52" y="616.812"/>
      </g>
     </g>
    </g>
    <g id="xtick_40">
     <g id="line2d_71">
      <g>
       <use style="stroke:#000000;stroke-width:0.8;" x="546.296765" xlink:href="#mfc30a6fd52" y="616.812"/>
      </g>
     </g>
    </g>
    <g id="xtick_41">
     <g id="line2d_72">
      <g>
       <use style="stroke:#000000;stroke-width:0.8;" x="699.705" xlink:href="#mfc30a6fd52" y="616.812"/>
      </g>
     </g>
    </g>
    <g id="xtick_42">
     <g id="line2d_73">
      <g>
       <use style="stroke:#000000;stroke-width:0.6;" x="86.072059" xlink:href="#m9f2aa1939a" y="616.812"/>
      </g>
     </g>
    </g>
    <g id="xtick_43">
     <g id="line2d_74">
      <g>
       <use style="stroke:#000000;stroke-width:0.6;" x="124.424118" xlink:href="#m9f2aa1939a" y="616.812"/>
      </g>
     </g>
    </g>
    <g id="xtick_44">
     <g id="line2d_75">
      <g>
       <use style="stroke:#000000;stroke-width:0.6;" x="162.776176" xlink:href="#m9f2aa1939a" y="616.812"/>
      </g>
     </g>
    </g>
    <g id="xtick_45">
     <g id="line2d_76">
      <g>
       <use style="stroke:#000000;stroke-width:0.6;" x="201.128235" xlink:href="#m9f2aa1939a" y="616.812"/>
      </g>
     </g>
    </g>
    <g id="xtick_46">
     <g id="line2d_77">
      <g>
       <use style="stroke:#000000;stroke-width:0.6;" x="277.832353" xlink:href="#m9f2aa1939a" y="616.812"/>
      </g>
     </g>
    </g>
    <g id="xtick_47">
     <g id="line2d_78">
      <g>
       <use style="stroke:#000000;stroke-width:0.6;" x="316.184412" xlink:href="#m9f2aa1939a" y="616.812"/>
      </g>
     </g>
    </g>
    <g id="xtick_48">
     <g id="line2d_79">
      <g>
       <use style="stroke:#000000;stroke-width:0.6;" x="354.536471" xlink:href="#m9f2aa1939a" y="616.812"/>
      </g>
     </g>
    </g>
    <g id="xtick_49">
     <g id="line2d_80">
      <g>
       <use style="stroke:#000000;stroke-width:0.6;" x="431.240588" xlink:href="#m9f2aa1939a" y="616.812"/>
      </g>
     </g>
    </g>
    <g id="xtick_50">
     <g id="line2d_81">
      <g>
       <use style="stroke:#000000;stroke-width:0.6;" x="469.592647" xlink:href="#m9f2aa1939a" y="616.812"/>
      </g>
     </g>
    </g>
    <g id="xtick_51">
     <g id="line2d_82">
      <g>
       <use style="stroke:#000000;stroke-width:0.6;" x="507.944706" xlink:href="#m9f2aa1939a" y="616.812"/>
      </g>
     </g>
    </g>
    <g id="xtick_52">
     <g id="line2d_83">
      <g>
       <use style="stroke:#000000;stroke-width:0.6;" x="584.648824" xlink:href="#m9f2aa1939a" y="616.812"/>
      </g>
     </g>
    </g>
    <g id="xtick_53">
     <g id="line2d_84">
      <g>
       <use style="stroke:#000000;stroke-width:0.6;" x="623.000882" xlink:href="#m9f2aa1939a" y="616.812"/>
      </g>
     </g>
    </g>
    <g id="xtick_54">
     <g id="line2d_85">
      <g>
       <use style="stroke:#000000;stroke-width:0.6;" x="661.352941" xlink:href="#m9f2aa1939a" y="616.812"/>
      </g>
     </g>
    </g>
   </g>
   <g id="matplotlib.axis_6">
    <g id="ytick_12">
     <g id="line2d_86">
      <path clip-path="url(#p6fec459628)" d="M 47.72 616.812 
L 699.705 616.812 
" style="fill:none;stroke:#666666;stroke-linecap:square;stroke-opacity:0.2;stroke-width:0.8;"/>
     </g>
     <g id="line2d_87">
      <g>
       <use style="stroke:#000000;stroke-width:0.8;" x="47.72" xlink:href="#mfcb35800e2" y="616.812"/>
      </g>
     </g>
     <g id="text_19">
      <!-- 0.0 -->
      <g transform="translate(24.816875 620.611219)scale(0.1 -0.1)">
       <use xlink:href="#DejaVuSans-48"/>
       <use x="63.623047" xlink:href="#DejaVuSans-46"/>
       <use x="95.410156" xlink:href="#DejaVuSans-48"/>
      </g>
     </g>
    </g>
    <g id="ytick_13">
     <g id="line2d_88">
      <path clip-path="url(#p6fec459628)" d="M 47.72 594.867306 
L 699.705 594.867306 
" style="fill:none;stroke:#666666;stroke-linecap:square;stroke-opacity:0.2;stroke-width:0.8;"/>
     </g>
     <g id="line2d_89">
      <g>
       <use style="stroke:#000000;stroke-width:0.8;" x="47.72" xlink:href="#mfcb35800e2" y="594.867306"/>
      </g>
     </g>
     <g id="text_20">
      <!-- 0.5 -->
      <g transform="translate(24.816875 598.666525)scale(0.1 -0.1)">
       <use xlink:href="#DejaVuSans-48"/>
       <use x="63.623047" xlink:href="#DejaVuSans-46"/>
       <use x="95.410156" xlink:href="#DejaVuSans-53"/>
      </g>
     </g>
    </g>
    <g id="ytick_14">
     <g id="line2d_90">
      <path clip-path="url(#p6fec459628)" d="M 47.72 572.922612 
L 699.705 572.922612 
" style="fill:none;stroke:#666666;stroke-linecap:square;stroke-opacity:0.2;stroke-width:0.8;"/>
     </g>
     <g id="line2d_91">
      <g>
       <use style="stroke:#000000;stroke-width:0.8;" x="47.72" xlink:href="#mfcb35800e2" y="572.922612"/>
      </g>
     </g>
     <g id="text_21">
      <!-- 1.0 -->
      <g transform="translate(24.816875 576.721831)scale(0.1 -0.1)">
       <use xlink:href="#DejaVuSans-49"/>
       <use x="63.623047" xlink:href="#DejaVuSans-46"/>
       <use x="95.410156" xlink:href="#DejaVuSans-48"/>
      </g>
     </g>
    </g>
    <g id="ytick_15">
     <g id="line2d_92">
      <path clip-path="url(#p6fec459628)" d="M 47.72 550.977918 
L 699.705 550.977918 
" style="fill:none;stroke:#666666;stroke-linecap:square;stroke-opacity:0.2;stroke-width:0.8;"/>
     </g>
     <g id="line2d_93">
      <g>
       <use style="stroke:#000000;stroke-width:0.8;" x="47.72" xlink:href="#mfcb35800e2" y="550.977918"/>
      </g>
     </g>
     <g id="text_22">
      <!-- 1.5 -->
      <g transform="translate(24.816875 554.777137)scale(0.1 -0.1)">
       <use xlink:href="#DejaVuSans-49"/>
       <use x="63.623047" xlink:href="#DejaVuSans-46"/>
       <use x="95.410156" xlink:href="#DejaVuSans-53"/>
      </g>
     </g>
    </g>
    <g id="ytick_16">
     <g id="line2d_94">
      <path clip-path="url(#p6fec459628)" d="M 47.72 529.033224 
L 699.705 529.033224 
" style="fill:none;stroke:#666666;stroke-linecap:square;stroke-opacity:0.2;stroke-width:0.8;"/>
     </g>
     <g id="line2d_95">
      <g>
       <use style="stroke:#000000;stroke-width:0.8;" x="47.72" xlink:href="#mfcb35800e2" y="529.033224"/>
      </g>
     </g>
     <g id="text_23">
      <!-- 2.0 -->
      <g transform="translate(24.816875 532.832443)scale(0.1 -0.1)">
       <use xlink:href="#DejaVuSans-50"/>
       <use x="63.623047" xlink:href="#DejaVuSans-46"/>
       <use x="95.410156" xlink:href="#DejaVuSans-48"/>
      </g>
     </g>
    </g>
    <g id="ytick_17">
     <g id="line2d_96">
      <path clip-path="url(#p6fec459628)" d="M 47.72 507.088531 
L 699.705 507.088531 
" style="fill:none;stroke:#666666;stroke-linecap:square;stroke-opacity:0.2;stroke-width:0.8;"/>
     </g>
     <g id="line2d_97">
      <g>
       <use style="stroke:#000000;stroke-width:0.8;" x="47.72" xlink:href="#mfcb35800e2" y="507.088531"/>
      </g>
     </g>
     <g id="text_24">
      <!-- 2.5 -->
      <g transform="translate(24.816875 510.887749)scale(0.1 -0.1)">
       <use xlink:href="#DejaVuSans-50"/>
       <use x="63.623047" xlink:href="#DejaVuSans-46"/>
       <use x="95.410156" xlink:href="#DejaVuSans-53"/>
      </g>
     </g>
    </g>
    <g id="ytick_18">
     <g id="line2d_98">
      <path clip-path="url(#p6fec459628)" d="M 47.72 485.143837 
L 699.705 485.143837 
" style="fill:none;stroke:#666666;stroke-linecap:square;stroke-opacity:0.2;stroke-width:0.8;"/>
     </g>
     <g id="line2d_99">
      <g>
       <use style="stroke:#000000;stroke-width:0.8;" x="47.72" xlink:href="#mfcb35800e2" y="485.143837"/>
      </g>
     </g>
     <g id="text_25">
      <!-- 3.0 -->
      <defs>
       <path d="M 40.578125 39.3125 
Q 47.65625 37.796875 51.625 33 
Q 55.609375 28.21875 55.609375 21.1875 
Q 55.609375 10.40625 48.1875 4.484375 
Q 40.765625 -1.421875 27.09375 -1.421875 
Q 22.515625 -1.421875 17.65625 -0.515625 
Q 12.796875 0.390625 7.625 2.203125 
L 7.625 11.71875 
Q 11.71875 9.328125 16.59375 8.109375 
Q 21.484375 6.890625 26.8125 6.890625 
Q 36.078125 6.890625 40.9375 10.546875 
Q 45.796875 14.203125 45.796875 21.1875 
Q 45.796875 27.640625 41.28125 31.265625 
Q 36.765625 34.90625 28.71875 34.90625 
L 20.21875 34.90625 
L 20.21875 43.015625 
L 29.109375 43.015625 
Q 36.375 43.015625 40.234375 45.921875 
Q 44.09375 48.828125 44.09375 54.296875 
Q 44.09375 59.90625 40.109375 62.90625 
Q 36.140625 65.921875 28.71875 65.921875 
Q 24.65625 65.921875 20.015625 65.03125 
Q 15.375 64.15625 9.8125 62.3125 
L 9.8125 71.09375 
Q 15.4375 72.65625 20.34375 73.4375 
Q 25.25 74.21875 29.59375 74.21875 
Q 40.828125 74.21875 47.359375 69.109375 
Q 53.90625 64.015625 53.90625 55.328125 
Q 53.90625 49.265625 50.4375 45.09375 
Q 46.96875 40.921875 40.578125 39.3125 
z
" id="DejaVuSans-51"/>
      </defs>
      <g transform="translate(24.816875 488.943055)scale(0.1 -0.1)">
       <use xlink:href="#DejaVuSans-51"/>
       <use x="63.623047" xlink:href="#DejaVuSans-46"/>
       <use x="95.410156" xlink:href="#DejaVuSans-48"/>
      </g>
     </g>
    </g>
    <g id="ytick_19">
     <g id="line2d_100">
      <path clip-path="url(#p6fec459628)" d="M 47.72 463.199143 
L 699.705 463.199143 
" style="fill:none;stroke:#666666;stroke-linecap:square;stroke-opacity:0.2;stroke-width:0.8;"/>
     </g>
     <g id="line2d_101">
      <g>
       <use style="stroke:#000000;stroke-width:0.8;" x="47.72" xlink:href="#mfcb35800e2" y="463.199143"/>
      </g>
     </g>
     <g id="text_26">
      <!-- 3.5 -->
      <g transform="translate(24.816875 466.998362)scale(0.1 -0.1)">
       <use xlink:href="#DejaVuSans-51"/>
       <use x="63.623047" xlink:href="#DejaVuSans-46"/>
       <use x="95.410156" xlink:href="#DejaVuSans-53"/>
      </g>
     </g>
    </g>
    <g id="text_27">
     <!-- Rate per 100,000 people -->
     <g transform="translate(18.737187 591.763438)rotate(-90)scale(0.1 -0.1)">
      <use xlink:href="#DejaVuSans-82"/>
      <use x="69.451172" xlink:href="#DejaVuSans-97"/>
      <use x="130.730469" xlink:href="#DejaVuSans-116"/>
      <use x="169.939453" xlink:href="#DejaVuSans-101"/>
      <use x="231.462891" xlink:href="#DejaVuSans-32"/>
      <use x="263.25" xlink:href="#DejaVuSans-112"/>
      <use x="326.726562" xlink:href="#DejaVuSans-101"/>
      <use x="388.25" xlink:href="#DejaVuSans-114"/>
      <use x="429.363281" xlink:href="#DejaVuSans-32"/>
      <use x="461.150391" xlink:href="#DejaVuSans-49"/>
      <use x="524.773438" xlink:href="#DejaVuSans-48"/>
      <use x="588.396484" xlink:href="#DejaVuSans-48"/>
      <use x="652.019531" xlink:href="#DejaVuSans-44"/>
      <use x="683.806641" xlink:href="#DejaVuSans-48"/>
      <use x="747.429688" xlink:href="#DejaVuSans-48"/>
      <use x="811.052734" xlink:href="#DejaVuSans-48"/>
      <use x="874.675781" xlink:href="#DejaVuSans-32"/>
      <use x="906.462891" xlink:href="#DejaVuSans-112"/>
      <use x="969.939453" xlink:href="#DejaVuSans-101"/>
      <use x="1031.462891" xlink:href="#DejaVuSans-111"/>
      <use x="1092.644531" xlink:href="#DejaVuSans-112"/>
      <use x="1156.121094" xlink:href="#DejaVuSans-108"/>
      <use x="1183.904297" xlink:href="#DejaVuSans-101"/>
     </g>
    </g>
   </g>
   <g id="line2d_102">
    <path clip-path="url(#p6fec459628)" d="M 47.72 616.812 
M 239.480294 612.969927 
L 277.832353 610.904191 
L 316.184412 610.907279 
L 354.536471 611.204161 
L 392.888529 605.579565 
L 431.240588 600.271421 
L 469.592647 602.643468 
L 507.944706 584.642799 
L 546.296765 576.922044 
L 584.648824 569.558757 
L 623.000882 566.927938 
L 661.352941 529.789102 
L 699.705 579.285618 
" style="fill:none;stroke:#377eb8;stroke-linecap:square;stroke-width:1.5;"/>
   </g>
   <g id="line2d_103">
    <path clip-path="url(#p6fec459628)" d="M 162.776176 616.812 
M 239.480294 607.472768 
L 277.832353 598.133354 
L 316.184412 591.463187 
L 354.536471 598.133689 
L 392.888529 571.501006 
L 431.240588 570.174915 
L 469.592647 570.180054 
L 507.944706 531.535477 
L 546.296765 531.626304 
L 584.648824 497.02975 
L 623.000882 493.045452 
L 661.352941 450.484381 
L 699.705 517.111882 
" style="fill:none;stroke:#ff7f00;stroke-linecap:square;stroke-width:1.5;"/>
   </g>
   <g id="line2d_104">
    <path clip-path="url(#p6fec459628)" d="M 47.72 616.812 
L 86.072059 616.812 
M 162.776176 616.812 
M 277.832353 596.405806 
L 316.184412 603.206183 
M 392.888529 576.091703 
L 431.240588 586.269262 
L 469.592647 576.08265 
L 507.944706 569.285126 
L 546.296765 554.138718 
L 584.648824 560.898283 
L 623.000882 554.10147 
L 661.352941 520.185006 
L 699.705 550.87211 
" style="fill:none;stroke:#4daf4a;stroke-linecap:square;stroke-width:1.5;"/>
   </g>
   <g id="line2d_105">
    <path clip-path="url(#p6fec459628)" d="M 86.072059 616.812 
L 124.424118 616.812 
M 201.128235 616.812 
M 392.888529 589.450103 
L 431.240588 574.68914 
L 469.592647 587.306784 
L 507.944706 589.392483 
L 546.296765 595.77875 
L 584.648824 576.806571 
L 623.000882 585.198267 
L 661.352941 578.850054 
L 699.705 595.802653 
" style="fill:none;stroke:#f781bf;stroke-linecap:square;stroke-width:1.5;"/>
   </g>
   <g id="line2d_106">
    <path clip-path="url(#p6fec459628)" d="M 47.72 616.812 
L 86.072059 616.812 
L 124.424118 616.812 
L 162.776176 616.812 
L 201.128235 616.812 
L 239.480294 616.812 
M 316.184412 616.812 
M 392.888529 587.811791 
M 469.592647 576.63975 
L 507.944706 583.810696 
M 584.648824 580.177185 
M 661.352941 594.697466 
" style="fill:none;stroke:#a65628;stroke-linecap:square;stroke-width:1.5;"/>
   </g>
   <g id="patch_15">
    <path d="M 47.72 616.812 
L 47.72 442.168 
" style="fill:none;stroke:#000000;stroke-linecap:square;stroke-linejoin:miter;stroke-width:0.8;"/>
   </g>
   <g id="patch_16">
    <path d="M 699.705 616.812 
L 699.705 442.168 
" style="fill:none;stroke:#000000;stroke-linecap:square;stroke-linejoin:miter;stroke-width:0.8;"/>
   </g>
   <g id="patch_17">
    <path d="M 47.72 616.812 
L 699.705 616.812 
" style="fill:none;stroke:#000000;stroke-linecap:square;stroke-linejoin:miter;stroke-width:0.8;"/>
   </g>
   <g id="patch_18">
    <path d="M 47.72 442.168 
L 699.705 442.168 
" style="fill:none;stroke:#000000;stroke-linecap:square;stroke-linejoin:miter;stroke-width:0.8;"/>
   </g>
   <g id="text_28">
    <!-- c) Long-COVID rates stratified by age group -->
    <defs>
     <path d="M 48.78125 52.59375 
L 48.78125 44.1875 
Q 44.96875 46.296875 41.140625 47.34375 
Q 37.3125 48.390625 33.40625 48.390625 
Q 24.65625 48.390625 19.8125 42.84375 
Q 14.984375 37.3125 14.984375 27.296875 
Q 14.984375 17.28125 19.8125 11.734375 
Q 24.65625 6.203125 33.40625 6.203125 
Q 37.3125 6.203125 41.140625 7.25 
Q 44.96875 8.296875 48.78125 10.40625 
L 48.78125 2.09375 
Q 45.015625 0.34375 40.984375 -0.53125 
Q 36.96875 -1.421875 32.421875 -1.421875 
Q 20.0625 -1.421875 12.78125 6.34375 
Q 5.515625 14.109375 5.515625 27.296875 
Q 5.515625 40.671875 12.859375 48.328125 
Q 20.21875 56 33.015625 56 
Q 37.15625 56 41.109375 55.140625 
Q 45.0625 54.296875 48.78125 52.59375 
z
" id="DejaVuSans-99"/>
     <path d="M 8.5 21.578125 
L 8.5 54.6875 
L 17.484375 54.6875 
L 17.484375 21.921875 
Q 17.484375 14.15625 20.5 10.265625 
Q 23.53125 6.390625 29.59375 6.390625 
Q 36.859375 6.390625 41.078125 11.03125 
Q 45.3125 15.671875 45.3125 23.6875 
L 45.3125 54.6875 
L 54.296875 54.6875 
L 54.296875 0 
L 45.3125 0 
L 45.3125 8.40625 
Q 42.046875 3.421875 37.71875 1 
Q 33.40625 -1.421875 27.6875 -1.421875 
Q 18.265625 -1.421875 13.375 4.4375 
Q 8.5 10.296875 8.5 21.578125 
z
M 31.109375 56 
z
" id="DejaVuSans-117"/>
    </defs>
    <g transform="translate(47.72 436.168)scale(0.12 -0.12)">
     <use xlink:href="#DejaVuSans-99"/>
     <use x="54.980469" xlink:href="#DejaVuSans-41"/>
     <use x="93.994141" xlink:href="#DejaVuSans-32"/>
     <use x="125.78125" xlink:href="#DejaVuSans-76"/>
     <use x="181.478516" xlink:href="#DejaVuSans-111"/>
     <use x="242.660156" xlink:href="#DejaVuSans-110"/>
     <use x="306.039062" xlink:href="#DejaVuSans-103"/>
     <use x="369.515625" xlink:href="#DejaVuSans-45"/>
     <use x="405.599609" xlink:href="#DejaVuSans-67"/>
     <use x="475.423828" xlink:href="#DejaVuSans-79"/>
     <use x="554.119141" xlink:href="#DejaVuSans-86"/>
     <use x="622.527344" xlink:href="#DejaVuSans-73"/>
     <use x="652.019531" xlink:href="#DejaVuSans-68"/>
     <use x="729.021484" xlink:href="#DejaVuSans-32"/>
     <use x="760.808594" xlink:href="#DejaVuSans-114"/>
     <use x="801.921875" xlink:href="#DejaVuSans-97"/>
     <use x="863.201172" xlink:href="#DejaVuSans-116"/>
     <use x="902.410156" xlink:href="#DejaVuSans-101"/>
     <use x="963.933594" xlink:href="#DejaVuSans-115"/>
     <use x="1016.033203" xlink:href="#DejaVuSans-32"/>
     <use x="1047.820312" xlink:href="#DejaVuSans-115"/>
     <use x="1099.919922" xlink:href="#DejaVuSans-116"/>
     <use x="1139.128906" xlink:href="#DejaVuSans-114"/>
     <use x="1180.242188" xlink:href="#DejaVuSans-97"/>
     <use x="1241.521484" xlink:href="#DejaVuSans-116"/>
     <use x="1280.730469" xlink:href="#DejaVuSans-105"/>
     <use x="1308.513672" xlink:href="#DejaVuSans-102"/>
     <use x="1343.71875" xlink:href="#DejaVuSans-105"/>
     <use x="1371.501953" xlink:href="#DejaVuSans-101"/>
     <use x="1433.025391" xlink:href="#DejaVuSans-100"/>
     <use x="1496.501953" xlink:href="#DejaVuSans-32"/>
     <use x="1528.289062" xlink:href="#DejaVuSans-98"/>
     <use x="1591.765625" xlink:href="#DejaVuSans-121"/>
     <use x="1650.945312" xlink:href="#DejaVuSans-32"/>
     <use x="1682.732422" xlink:href="#DejaVuSans-97"/>
     <use x="1744.011719" xlink:href="#DejaVuSans-103"/>
     <use x="1807.488281" xlink:href="#DejaVuSans-101"/>
     <use x="1869.011719" xlink:href="#DejaVuSans-32"/>
     <use x="1900.798828" xlink:href="#DejaVuSans-103"/>
     <use x="1964.275391" xlink:href="#DejaVuSans-114"/>
     <use x="2005.357422" xlink:href="#DejaVuSans-111"/>
     <use x="2066.539062" xlink:href="#DejaVuSans-117"/>
     <use x="2129.917969" xlink:href="#DejaVuSans-112"/>
    </g>
   </g>
   <g id="legend_3">
    <g id="patch_19">
     <path d="M 54.02 612.312 
L 108.972031 612.312 
Q 110.772031 612.312 110.772031 610.512 
L 110.772031 545.360437 
Q 110.772031 543.560438 108.972031 543.560438 
L 54.02 543.560438 
Q 52.22 543.560438 52.22 545.360437 
L 52.22 610.512 
Q 52.22 612.312 54.02 612.312 
z
" style="fill:#ffffff;opacity:0.8;stroke:#cccccc;stroke-linejoin:miter;"/>
    </g>
    <g id="line2d_107">
     <path d="M 55.82 550.849031 
L 73.82 550.849031 
" style="fill:none;stroke:#377eb8;stroke-linecap:square;stroke-width:1.5;"/>
    </g>
    <g id="line2d_108"/>
    <g id="text_29">
     <!-- 0-49 -->
     <defs>
      <path d="M 37.796875 64.3125 
L 12.890625 25.390625 
L 37.796875 25.390625 
z
M 35.203125 72.90625 
L 47.609375 72.90625 
L 47.609375 25.390625 
L 58.015625 25.390625 
L 58.015625 17.1875 
L 47.609375 17.1875 
L 47.609375 0 
L 37.796875 0 
L 37.796875 17.1875 
L 4.890625 17.1875 
L 4.890625 26.703125 
z
" id="DejaVuSans-52"/>
      <path d="M 10.984375 1.515625 
L 10.984375 10.5 
Q 14.703125 8.734375 18.5 7.8125 
Q 22.3125 6.890625 25.984375 6.890625 
Q 35.75 6.890625 40.890625 13.453125 
Q 46.046875 20.015625 46.78125 33.40625 
Q 43.953125 29.203125 39.59375 26.953125 
Q 35.25 24.703125 29.984375 24.703125 
Q 19.046875 24.703125 12.671875 31.3125 
Q 6.296875 37.9375 6.296875 49.421875 
Q 6.296875 60.640625 12.9375 67.421875 
Q 19.578125 74.21875 30.609375 74.21875 
Q 43.265625 74.21875 49.921875 64.515625 
Q 56.59375 54.828125 56.59375 36.375 
Q 56.59375 19.140625 48.40625 8.859375 
Q 40.234375 -1.421875 26.421875 -1.421875 
Q 22.703125 -1.421875 18.890625 -0.6875 
Q 15.09375 0.046875 10.984375 1.515625 
z
M 30.609375 32.421875 
Q 37.25 32.421875 41.125 36.953125 
Q 45.015625 41.5 45.015625 49.421875 
Q 45.015625 57.28125 41.125 61.84375 
Q 37.25 66.40625 30.609375 66.40625 
Q 23.96875 66.40625 20.09375 61.84375 
Q 16.21875 57.28125 16.21875 49.421875 
Q 16.21875 41.5 20.09375 36.953125 
Q 23.96875 32.421875 30.609375 32.421875 
z
" id="DejaVuSans-57"/>
     </defs>
     <g transform="translate(81.02 553.999031)scale(0.09 -0.09)">
      <use xlink:href="#DejaVuSans-48"/>
      <use x="63.623047" xlink:href="#DejaVuSans-45"/>
      <use x="99.707031" xlink:href="#DejaVuSans-52"/>
      <use x="163.330078" xlink:href="#DejaVuSans-57"/>
     </g>
    </g>
    <g id="line2d_109">
     <path d="M 55.82 564.059344 
L 73.82 564.059344 
" style="fill:none;stroke:#ff7f00;stroke-linecap:square;stroke-width:1.5;"/>
    </g>
    <g id="line2d_110"/>
    <g id="text_30">
     <!-- 50-59 -->
     <g transform="translate(81.02 567.209344)scale(0.09 -0.09)">
      <use xlink:href="#DejaVuSans-53"/>
      <use x="63.623047" xlink:href="#DejaVuSans-48"/>
      <use x="127.246094" xlink:href="#DejaVuSans-45"/>
      <use x="163.330078" xlink:href="#DejaVuSans-53"/>
      <use x="226.953125" xlink:href="#DejaVuSans-57"/>
     </g>
    </g>
    <g id="line2d_111">
     <path d="M 55.82 577.269656 
L 73.82 577.269656 
" style="fill:none;stroke:#4daf4a;stroke-linecap:square;stroke-width:1.5;"/>
    </g>
    <g id="line2d_112"/>
    <g id="text_31">
     <!-- 60-69 -->
     <defs>
      <path d="M 33.015625 40.375 
Q 26.375 40.375 22.484375 35.828125 
Q 18.609375 31.296875 18.609375 23.390625 
Q 18.609375 15.53125 22.484375 10.953125 
Q 26.375 6.390625 33.015625 6.390625 
Q 39.65625 6.390625 43.53125 10.953125 
Q 47.40625 15.53125 47.40625 23.390625 
Q 47.40625 31.296875 43.53125 35.828125 
Q 39.65625 40.375 33.015625 40.375 
z
M 52.59375 71.296875 
L 52.59375 62.3125 
Q 48.875 64.0625 45.09375 64.984375 
Q 41.3125 65.921875 37.59375 65.921875 
Q 27.828125 65.921875 22.671875 59.328125 
Q 17.53125 52.734375 16.796875 39.40625 
Q 19.671875 43.65625 24.015625 45.921875 
Q 28.375 48.1875 33.59375 48.1875 
Q 44.578125 48.1875 50.953125 41.515625 
Q 57.328125 34.859375 57.328125 23.390625 
Q 57.328125 12.15625 50.6875 5.359375 
Q 44.046875 -1.421875 33.015625 -1.421875 
Q 20.359375 -1.421875 13.671875 8.265625 
Q 6.984375 17.96875 6.984375 36.375 
Q 6.984375 53.65625 15.1875 63.9375 
Q 23.390625 74.21875 37.203125 74.21875 
Q 40.921875 74.21875 44.703125 73.484375 
Q 48.484375 72.75 52.59375 71.296875 
z
" id="DejaVuSans-54"/>
     </defs>
     <g transform="translate(81.02 580.419656)scale(0.09 -0.09)">
      <use xlink:href="#DejaVuSans-54"/>
      <use x="63.623047" xlink:href="#DejaVuSans-48"/>
      <use x="127.246094" xlink:href="#DejaVuSans-45"/>
      <use x="163.330078" xlink:href="#DejaVuSans-54"/>
      <use x="226.953125" xlink:href="#DejaVuSans-57"/>
     </g>
    </g>
    <g id="line2d_113">
     <path d="M 55.82 590.479969 
L 73.82 590.479969 
" style="fill:none;stroke:#f781bf;stroke-linecap:square;stroke-width:1.5;"/>
    </g>
    <g id="line2d_114"/>
    <g id="text_32">
     <!-- 70-79 -->
     <defs>
      <path d="M 8.203125 72.90625 
L 55.078125 72.90625 
L 55.078125 68.703125 
L 28.609375 0 
L 18.3125 0 
L 43.21875 64.59375 
L 8.203125 64.59375 
z
" id="DejaVuSans-55"/>
     </defs>
     <g transform="translate(81.02 593.629969)scale(0.09 -0.09)">
      <use xlink:href="#DejaVuSans-55"/>
      <use x="63.623047" xlink:href="#DejaVuSans-48"/>
      <use x="127.246094" xlink:href="#DejaVuSans-45"/>
      <use x="163.330078" xlink:href="#DejaVuSans-55"/>
      <use x="226.953125" xlink:href="#DejaVuSans-57"/>
     </g>
    </g>
    <g id="line2d_115">
     <path d="M 55.82 603.690281 
L 73.82 603.690281 
" style="fill:none;stroke:#a65628;stroke-linecap:square;stroke-width:1.5;"/>
    </g>
    <g id="line2d_116"/>
    <g id="text_33">
     <!-- 80+ -->
     <defs>
      <path d="M 31.78125 34.625 
Q 24.75 34.625 20.71875 30.859375 
Q 16.703125 27.09375 16.703125 20.515625 
Q 16.703125 13.921875 20.71875 10.15625 
Q 24.75 6.390625 31.78125 6.390625 
Q 38.8125 6.390625 42.859375 10.171875 
Q 46.921875 13.96875 46.921875 20.515625 
Q 46.921875 27.09375 42.890625 30.859375 
Q 38.875 34.625 31.78125 34.625 
z
M 21.921875 38.8125 
Q 15.578125 40.375 12.03125 44.71875 
Q 8.5 49.078125 8.5 55.328125 
Q 8.5 64.0625 14.71875 69.140625 
Q 20.953125 74.21875 31.78125 74.21875 
Q 42.671875 74.21875 48.875 69.140625 
Q 55.078125 64.0625 55.078125 55.328125 
Q 55.078125 49.078125 51.53125 44.71875 
Q 48 40.375 41.703125 38.8125 
Q 48.828125 37.15625 52.796875 32.3125 
Q 56.78125 27.484375 56.78125 20.515625 
Q 56.78125 9.90625 50.3125 4.234375 
Q 43.84375 -1.421875 31.78125 -1.421875 
Q 19.734375 -1.421875 13.25 4.234375 
Q 6.78125 9.90625 6.78125 20.515625 
Q 6.78125 27.484375 10.78125 32.3125 
Q 14.796875 37.15625 21.921875 38.8125 
z
M 18.3125 54.390625 
Q 18.3125 48.734375 21.84375 45.5625 
Q 25.390625 42.390625 31.78125 42.390625 
Q 38.140625 42.390625 41.71875 45.5625 
Q 45.3125 48.734375 45.3125 54.390625 
Q 45.3125 60.0625 41.71875 63.234375 
Q 38.140625 66.40625 31.78125 66.40625 
Q 25.390625 66.40625 21.84375 63.234375 
Q 18.3125 60.0625 18.3125 54.390625 
z
" id="DejaVuSans-56"/>
      <path d="M 46 62.703125 
L 46 35.5 
L 73.1875 35.5 
L 73.1875 27.203125 
L 46 27.203125 
L 46 0 
L 37.796875 0 
L 37.796875 27.203125 
L 10.59375 27.203125 
L 10.59375 35.5 
L 37.796875 35.5 
L 37.796875 62.703125 
z
" id="DejaVuSans-43"/>
     </defs>
     <g transform="translate(81.02 606.840281)scale(0.09 -0.09)">
      <use xlink:href="#DejaVuSans-56"/>
      <use x="63.623047" xlink:href="#DejaVuSans-48"/>
      <use x="127.246094" xlink:href="#DejaVuSans-43"/>
     </g>
    </g>
   </g>
  </g>
  <g id="axes_4">
   <g id="patch_20">
    <path d="M 47.72 824.456 
L 699.705 824.456 
L 699.705 649.812 
L 47.72 649.812 
z
" style="fill:#ffffff;"/>
   </g>
   <g id="matplotlib.axis_7">
    <g id="xtick_55">
     <g id="line2d_117">
      <g>
       <use style="stroke:#000000;stroke-width:0.8;" x="47.72" xlink:href="#mfc30a6fd52" y="824.456"/>
      </g>
     </g>
     <g id="text_34">
      <!-- Nov -->
      <defs>
       <path d="M 9.8125 72.90625 
L 23.09375 72.90625 
L 55.421875 11.921875 
L 55.421875 72.90625 
L 64.984375 72.90625 
L 64.984375 0 
L 51.703125 0 
L 19.390625 60.984375 
L 19.390625 0 
L 9.8125 0 
z
" id="DejaVuSans-78"/>
       <path d="M 2.984375 54.6875 
L 12.5 54.6875 
L 29.59375 8.796875 
L 46.6875 54.6875 
L 56.203125 54.6875 
L 35.6875 0 
L 23.484375 0 
z
" id="DejaVuSans-118"/>
      </defs>
      <g transform="translate(37.960625 839.054437)scale(0.1 -0.1)">
       <use xlink:href="#DejaVuSans-78"/>
       <use x="74.804688" xlink:href="#DejaVuSans-111"/>
       <use x="135.986328" xlink:href="#DejaVuSans-118"/>
      </g>
     </g>
    </g>
    <g id="xtick_56">
     <g id="line2d_118">
      <g>
       <use style="stroke:#000000;stroke-width:0.8;" x="239.480294" xlink:href="#mfc30a6fd52" y="824.456"/>
      </g>
     </g>
     <g id="text_35">
      <!-- Dec -->
      <g transform="translate(229.804513 839.054437)scale(0.1 -0.1)">
       <use xlink:href="#DejaVuSans-68"/>
       <use x="77.001953" xlink:href="#DejaVuSans-101"/>
       <use x="138.525391" xlink:href="#DejaVuSans-99"/>
      </g>
     </g>
    </g>
    <g id="xtick_57">
     <g id="line2d_119">
      <g>
       <use style="stroke:#000000;stroke-width:0.8;" x="392.888529" xlink:href="#mfc30a6fd52" y="824.456"/>
      </g>
     </g>
     <g id="text_36">
      <!-- Jan -->
      <defs>
       <path d="M 9.8125 72.90625 
L 19.671875 72.90625 
L 19.671875 5.078125 
Q 19.671875 -8.109375 14.671875 -14.0625 
Q 9.671875 -20.015625 -1.421875 -20.015625 
L -5.171875 -20.015625 
L -5.171875 -11.71875 
L -2.09375 -11.71875 
Q 4.4375 -11.71875 7.125 -8.046875 
Q 9.8125 -4.390625 9.8125 5.078125 
z
" id="DejaVuSans-74"/>
      </defs>
      <g transform="translate(385.180717 839.054437)scale(0.1 -0.1)">
       <use xlink:href="#DejaVuSans-74"/>
       <use x="29.492188" xlink:href="#DejaVuSans-97"/>
       <use x="90.771484" xlink:href="#DejaVuSans-110"/>
      </g>
      <!-- 2021 -->
      <g transform="translate(380.163529 850.25225)scale(0.1 -0.1)">
       <use xlink:href="#DejaVuSans-50"/>
       <use x="63.623047" xlink:href="#DejaVuSans-48"/>
       <use x="127.246094" xlink:href="#DejaVuSans-50"/>
       <use x="190.869141" xlink:href="#DejaVuSans-49"/>
      </g>
     </g>
    </g>
    <g id="xtick_58">
     <g id="line2d_120">
      <g>
       <use style="stroke:#000000;stroke-width:0.8;" x="546.296765" xlink:href="#mfc30a6fd52" y="824.456"/>
      </g>
     </g>
     <g id="text_37">
      <!-- Feb -->
      <g transform="translate(537.174108 839.054437)scale(0.1 -0.1)">
       <use xlink:href="#DejaVuSans-70"/>
       <use x="57.441406" xlink:href="#DejaVuSans-101"/>
       <use x="118.964844" xlink:href="#DejaVuSans-98"/>
      </g>
     </g>
    </g>
    <g id="xtick_59">
     <g id="line2d_121">
      <g>
       <use style="stroke:#000000;stroke-width:0.8;" x="699.705" xlink:href="#mfc30a6fd52" y="824.456"/>
      </g>
     </g>
     <g id="text_38">
      <!-- Mar -->
      <g transform="translate(690.271406 839.054437)scale(0.1 -0.1)">
       <use xlink:href="#DejaVuSans-77"/>
       <use x="86.279297" xlink:href="#DejaVuSans-97"/>
       <use x="147.558594" xlink:href="#DejaVuSans-114"/>
      </g>
     </g>
    </g>
    <g id="xtick_60">
     <g id="line2d_122">
      <g>
       <use style="stroke:#000000;stroke-width:0.6;" x="86.072059" xlink:href="#m9f2aa1939a" y="824.456"/>
      </g>
     </g>
    </g>
    <g id="xtick_61">
     <g id="line2d_123">
      <g>
       <use style="stroke:#000000;stroke-width:0.6;" x="124.424118" xlink:href="#m9f2aa1939a" y="824.456"/>
      </g>
     </g>
    </g>
    <g id="xtick_62">
     <g id="line2d_124">
      <g>
       <use style="stroke:#000000;stroke-width:0.6;" x="162.776176" xlink:href="#m9f2aa1939a" y="824.456"/>
      </g>
     </g>
    </g>
    <g id="xtick_63">
     <g id="line2d_125">
      <g>
       <use style="stroke:#000000;stroke-width:0.6;" x="201.128235" xlink:href="#m9f2aa1939a" y="824.456"/>
      </g>
     </g>
    </g>
    <g id="xtick_64">
     <g id="line2d_126">
      <g>
       <use style="stroke:#000000;stroke-width:0.6;" x="277.832353" xlink:href="#m9f2aa1939a" y="824.456"/>
      </g>
     </g>
    </g>
    <g id="xtick_65">
     <g id="line2d_127">
      <g>
       <use style="stroke:#000000;stroke-width:0.6;" x="316.184412" xlink:href="#m9f2aa1939a" y="824.456"/>
      </g>
     </g>
    </g>
    <g id="xtick_66">
     <g id="line2d_128">
      <g>
       <use style="stroke:#000000;stroke-width:0.6;" x="354.536471" xlink:href="#m9f2aa1939a" y="824.456"/>
      </g>
     </g>
    </g>
    <g id="xtick_67">
     <g id="line2d_129">
      <g>
       <use style="stroke:#000000;stroke-width:0.6;" x="431.240588" xlink:href="#m9f2aa1939a" y="824.456"/>
      </g>
     </g>
    </g>
    <g id="xtick_68">
     <g id="line2d_130">
      <g>
       <use style="stroke:#000000;stroke-width:0.6;" x="469.592647" xlink:href="#m9f2aa1939a" y="824.456"/>
      </g>
     </g>
    </g>
    <g id="xtick_69">
     <g id="line2d_131">
      <g>
       <use style="stroke:#000000;stroke-width:0.6;" x="507.944706" xlink:href="#m9f2aa1939a" y="824.456"/>
      </g>
     </g>
    </g>
    <g id="xtick_70">
     <g id="line2d_132">
      <g>
       <use style="stroke:#000000;stroke-width:0.6;" x="584.648824" xlink:href="#m9f2aa1939a" y="824.456"/>
      </g>
     </g>
    </g>
    <g id="xtick_71">
     <g id="line2d_133">
      <g>
       <use style="stroke:#000000;stroke-width:0.6;" x="623.000882" xlink:href="#m9f2aa1939a" y="824.456"/>
      </g>
     </g>
    </g>
    <g id="xtick_72">
     <g id="line2d_134">
      <g>
       <use style="stroke:#000000;stroke-width:0.6;" x="661.352941" xlink:href="#m9f2aa1939a" y="824.456"/>
      </g>
     </g>
    </g>
   </g>
   <g id="matplotlib.axis_8">
    <g id="ytick_20">
     <g id="line2d_135">
      <path clip-path="url(#pbbfc371fe6)" d="M 47.72 824.456 
L 699.705 824.456 
" style="fill:none;stroke:#666666;stroke-linecap:square;stroke-opacity:0.2;stroke-width:0.8;"/>
     </g>
     <g id="line2d_136">
      <g>
       <use style="stroke:#000000;stroke-width:0.8;" x="47.72" xlink:href="#mfcb35800e2" y="824.456"/>
      </g>
     </g>
     <g id="text_39">
      <!-- 0 -->
      <g transform="translate(34.3575 828.255219)scale(0.1 -0.1)">
       <use xlink:href="#DejaVuSans-48"/>
      </g>
     </g>
    </g>
    <g id="ytick_21">
     <g id="line2d_137">
      <path clip-path="url(#pbbfc371fe6)" d="M 47.72 796.215234 
L 699.705 796.215234 
" style="fill:none;stroke:#666666;stroke-linecap:square;stroke-opacity:0.2;stroke-width:0.8;"/>
     </g>
     <g id="line2d_138">
      <g>
       <use style="stroke:#000000;stroke-width:0.8;" x="47.72" xlink:href="#mfcb35800e2" y="796.215234"/>
      </g>
     </g>
     <g id="text_40">
      <!-- 10 -->
      <g transform="translate(27.995 800.014452)scale(0.1 -0.1)">
       <use xlink:href="#DejaVuSans-49"/>
       <use x="63.623047" xlink:href="#DejaVuSans-48"/>
      </g>
     </g>
    </g>
    <g id="ytick_22">
     <g id="line2d_139">
      <path clip-path="url(#pbbfc371fe6)" d="M 47.72 767.974467 
L 699.705 767.974467 
" style="fill:none;stroke:#666666;stroke-linecap:square;stroke-opacity:0.2;stroke-width:0.8;"/>
     </g>
     <g id="line2d_140">
      <g>
       <use style="stroke:#000000;stroke-width:0.8;" x="47.72" xlink:href="#mfcb35800e2" y="767.974467"/>
      </g>
     </g>
     <g id="text_41">
      <!-- 20 -->
      <g transform="translate(27.995 771.773686)scale(0.1 -0.1)">
       <use xlink:href="#DejaVuSans-50"/>
       <use x="63.623047" xlink:href="#DejaVuSans-48"/>
      </g>
     </g>
    </g>
    <g id="ytick_23">
     <g id="line2d_141">
      <path clip-path="url(#pbbfc371fe6)" d="M 47.72 739.733701 
L 699.705 739.733701 
" style="fill:none;stroke:#666666;stroke-linecap:square;stroke-opacity:0.2;stroke-width:0.8;"/>
     </g>
     <g id="line2d_142">
      <g>
       <use style="stroke:#000000;stroke-width:0.8;" x="47.72" xlink:href="#mfcb35800e2" y="739.733701"/>
      </g>
     </g>
     <g id="text_42">
      <!-- 30 -->
      <g transform="translate(27.995 743.532919)scale(0.1 -0.1)">
       <use xlink:href="#DejaVuSans-51"/>
       <use x="63.623047" xlink:href="#DejaVuSans-48"/>
      </g>
     </g>
    </g>
    <g id="ytick_24">
     <g id="line2d_143">
      <path clip-path="url(#pbbfc371fe6)" d="M 47.72 711.492934 
L 699.705 711.492934 
" style="fill:none;stroke:#666666;stroke-linecap:square;stroke-opacity:0.2;stroke-width:0.8;"/>
     </g>
     <g id="line2d_144">
      <g>
       <use style="stroke:#000000;stroke-width:0.8;" x="47.72" xlink:href="#mfcb35800e2" y="711.492934"/>
      </g>
     </g>
     <g id="text_43">
      <!-- 40 -->
      <g transform="translate(27.995 715.292153)scale(0.1 -0.1)">
       <use xlink:href="#DejaVuSans-52"/>
       <use x="63.623047" xlink:href="#DejaVuSans-48"/>
      </g>
     </g>
    </g>
    <g id="ytick_25">
     <g id="line2d_145">
      <path clip-path="url(#pbbfc371fe6)" d="M 47.72 683.252168 
L 699.705 683.252168 
" style="fill:none;stroke:#666666;stroke-linecap:square;stroke-opacity:0.2;stroke-width:0.8;"/>
     </g>
     <g id="line2d_146">
      <g>
       <use style="stroke:#000000;stroke-width:0.8;" x="47.72" xlink:href="#mfcb35800e2" y="683.252168"/>
      </g>
     </g>
     <g id="text_44">
      <!-- 50 -->
      <g transform="translate(27.995 687.051387)scale(0.1 -0.1)">
       <use xlink:href="#DejaVuSans-53"/>
       <use x="63.623047" xlink:href="#DejaVuSans-48"/>
      </g>
     </g>
    </g>
    <g id="ytick_26">
     <g id="line2d_147">
      <path clip-path="url(#pbbfc371fe6)" d="M 47.72 655.011401 
L 699.705 655.011401 
" style="fill:none;stroke:#666666;stroke-linecap:square;stroke-opacity:0.2;stroke-width:0.8;"/>
     </g>
     <g id="line2d_148">
      <g>
       <use style="stroke:#000000;stroke-width:0.8;" x="47.72" xlink:href="#mfcb35800e2" y="655.011401"/>
      </g>
     </g>
     <g id="text_45">
      <!-- 60 -->
      <g transform="translate(27.995 658.81062)scale(0.1 -0.1)">
       <use xlink:href="#DejaVuSans-54"/>
       <use x="63.623047" xlink:href="#DejaVuSans-48"/>
      </g>
     </g>
    </g>
    <g id="text_46">
     <!-- Rate per 100,000 people -->
     <g transform="translate(21.915312 799.407438)rotate(-90)scale(0.1 -0.1)">
      <use xlink:href="#DejaVuSans-82"/>
      <use x="69.451172" xlink:href="#DejaVuSans-97"/>
      <use x="130.730469" xlink:href="#DejaVuSans-116"/>
      <use x="169.939453" xlink:href="#DejaVuSans-101"/>
      <use x="231.462891" xlink:href="#DejaVuSans-32"/>
      <use x="263.25" xlink:href="#DejaVuSans-112"/>
      <use x="326.726562" xlink:href="#DejaVuSans-101"/>
      <use x="388.25" xlink:href="#DejaVuSans-114"/>
      <use x="429.363281" xlink:href="#DejaVuSans-32"/>
      <use x="461.150391" xlink:href="#DejaVuSans-49"/>
      <use x="524.773438" xlink:href="#DejaVuSans-48"/>
      <use x="588.396484" xlink:href="#DejaVuSans-48"/>
      <use x="652.019531" xlink:href="#DejaVuSans-44"/>
      <use x="683.806641" xlink:href="#DejaVuSans-48"/>
      <use x="747.429688" xlink:href="#DejaVuSans-48"/>
      <use x="811.052734" xlink:href="#DejaVuSans-48"/>
      <use x="874.675781" xlink:href="#DejaVuSans-32"/>
      <use x="906.462891" xlink:href="#DejaVuSans-112"/>
      <use x="969.939453" xlink:href="#DejaVuSans-101"/>
      <use x="1031.462891" xlink:href="#DejaVuSans-111"/>
      <use x="1092.644531" xlink:href="#DejaVuSans-112"/>
      <use x="1156.121094" xlink:href="#DejaVuSans-108"/>
      <use x="1183.904297" xlink:href="#DejaVuSans-101"/>
     </g>
    </g>
   </g>
   <g id="line2d_149">
    <path clip-path="url(#pbbfc371fe6)" d="M 86.072059 824.456 
M 162.776176 824.456 
M 239.480294 785.713915 
L 277.832353 764.993789 
M 431.240588 792.317961 
L 469.592647 764.895743 
L 507.944706 737.276324 
L 546.296765 736.845285 
L 584.648824 708.967588 
L 623.000882 714.036988 
L 661.352941 658.128381 
L 699.705 757.708738 
" style="fill:none;stroke:#377eb8;stroke-linecap:square;stroke-width:1.5;"/>
   </g>
   <g id="line2d_150">
    <path clip-path="url(#pbbfc371fe6)" d="M 239.480294 816.520828 
L 277.832353 811.854937 
L 316.184412 807.024766 
L 354.536471 812.225265 
L 392.888529 794.369231 
L 431.240588 792.578631 
L 469.592647 799.308442 
L 507.944706 785.923883 
L 546.296765 785.196191 
L 584.648824 769.978083 
L 623.000882 772.476993 
L 661.352941 734.224689 
L 699.705 783.177737 
" style="fill:none;stroke:#ff7f00;stroke-linecap:square;stroke-width:1.5;"/>
   </g>
   <g id="line2d_151">
    <path clip-path="url(#pbbfc371fe6)" d="M 162.776176 824.456 
M 239.480294 824.383781 
L 277.832353 824.275164 
L 316.184412 824.335138 
L 354.536471 824.346897 
L 392.888529 824.102715 
L 431.240588 824.113561 
L 469.592647 824.026539 
L 507.944706 823.631566 
L 546.296765 823.408112 
L 584.648824 823.505207 
L 623.000882 823.380586 
L 661.352941 823.206541 
L 699.705 823.577522 
" style="fill:none;stroke:#4daf4a;stroke-linecap:square;stroke-width:1.5;"/>
   </g>
   <g id="patch_21">
    <path d="M 47.72 824.456 
L 47.72 649.812 
" style="fill:none;stroke:#000000;stroke-linecap:square;stroke-linejoin:miter;stroke-width:0.8;"/>
   </g>
   <g id="patch_22">
    <path d="M 699.705 824.456 
L 699.705 649.812 
" style="fill:none;stroke:#000000;stroke-linecap:square;stroke-linejoin:miter;stroke-width:0.8;"/>
   </g>
   <g id="patch_23">
    <path d="M 47.72 824.456 
L 699.705 824.456 
" style="fill:none;stroke:#000000;stroke-linecap:square;stroke-linejoin:miter;stroke-width:0.8;"/>
   </g>
   <g id="patch_24">
    <path d="M 47.72 649.812 
L 699.705 649.812 
" style="fill:none;stroke:#000000;stroke-linecap:square;stroke-linejoin:miter;stroke-width:0.8;"/>
   </g>
   <g id="text_47">
    <!-- d) Long-COVID rates stratified by previous covid -->
    <g transform="translate(47.72 643.812)scale(0.12 -0.12)">
     <use xlink:href="#DejaVuSans-100"/>
     <use x="63.476562" xlink:href="#DejaVuSans-41"/>
     <use x="102.490234" xlink:href="#DejaVuSans-32"/>
     <use x="134.277344" xlink:href="#DejaVuSans-76"/>
     <use x="189.974609" xlink:href="#DejaVuSans-111"/>
     <use x="251.15625" xlink:href="#DejaVuSans-110"/>
     <use x="314.535156" xlink:href="#DejaVuSans-103"/>
     <use x="378.011719" xlink:href="#DejaVuSans-45"/>
     <use x="414.095703" xlink:href="#DejaVuSans-67"/>
     <use x="483.919922" xlink:href="#DejaVuSans-79"/>
     <use x="562.615234" xlink:href="#DejaVuSans-86"/>
     <use x="631.023438" xlink:href="#DejaVuSans-73"/>
     <use x="660.515625" xlink:href="#DejaVuSans-68"/>
     <use x="737.517578" xlink:href="#DejaVuSans-32"/>
     <use x="769.304688" xlink:href="#DejaVuSans-114"/>
     <use x="810.417969" xlink:href="#DejaVuSans-97"/>
     <use x="871.697266" xlink:href="#DejaVuSans-116"/>
     <use x="910.90625" xlink:href="#DejaVuSans-101"/>
     <use x="972.429688" xlink:href="#DejaVuSans-115"/>
     <use x="1024.529297" xlink:href="#DejaVuSans-32"/>
     <use x="1056.316406" xlink:href="#DejaVuSans-115"/>
     <use x="1108.416016" xlink:href="#DejaVuSans-116"/>
     <use x="1147.625" xlink:href="#DejaVuSans-114"/>
     <use x="1188.738281" xlink:href="#DejaVuSans-97"/>
     <use x="1250.017578" xlink:href="#DejaVuSans-116"/>
     <use x="1289.226562" xlink:href="#DejaVuSans-105"/>
     <use x="1317.009766" xlink:href="#DejaVuSans-102"/>
     <use x="1352.214844" xlink:href="#DejaVuSans-105"/>
     <use x="1379.998047" xlink:href="#DejaVuSans-101"/>
     <use x="1441.521484" xlink:href="#DejaVuSans-100"/>
     <use x="1504.998047" xlink:href="#DejaVuSans-32"/>
     <use x="1536.785156" xlink:href="#DejaVuSans-98"/>
     <use x="1600.261719" xlink:href="#DejaVuSans-121"/>
     <use x="1659.441406" xlink:href="#DejaVuSans-32"/>
     <use x="1691.228516" xlink:href="#DejaVuSans-112"/>
     <use x="1754.705078" xlink:href="#DejaVuSans-114"/>
     <use x="1795.787109" xlink:href="#DejaVuSans-101"/>
     <use x="1857.310547" xlink:href="#DejaVuSans-118"/>
     <use x="1916.490234" xlink:href="#DejaVuSans-105"/>
     <use x="1944.273438" xlink:href="#DejaVuSans-111"/>
     <use x="2005.455078" xlink:href="#DejaVuSans-117"/>
     <use x="2068.833984" xlink:href="#DejaVuSans-115"/>
     <use x="2120.933594" xlink:href="#DejaVuSans-32"/>
     <use x="2152.720703" xlink:href="#DejaVuSans-99"/>
     <use x="2207.701172" xlink:href="#DejaVuSans-111"/>
     <use x="2268.882812" xlink:href="#DejaVuSans-118"/>
     <use x="2328.0625" xlink:href="#DejaVuSans-105"/>
     <use x="2355.845703" xlink:href="#DejaVuSans-100"/>
    </g>
   </g>
   <g id="legend_4">
    <g id="patch_25">
     <path d="M 54.02 819.956 
L 193.131875 819.956 
Q 194.931875 819.956 194.931875 818.156 
L 194.931875 779.425062 
Q 194.931875 777.625062 193.131875 777.625062 
L 54.02 777.625062 
Q 52.22 777.625062 52.22 779.425062 
L 52.22 818.156 
Q 52.22 819.956 54.02 819.956 
z
" style="fill:#ffffff;opacity:0.8;stroke:#cccccc;stroke-linejoin:miter;"/>
    </g>
    <g id="line2d_152">
     <path d="M 55.82 784.913656 
L 73.82 784.913656 
" style="fill:none;stroke:#377eb8;stroke-linecap:square;stroke-width:1.5;"/>
    </g>
    <g id="line2d_153"/>
    <g id="text_48">
     <!-- COVID hospitalised -->
     <defs>
      <path d="M 54.890625 33.015625 
L 54.890625 0 
L 45.90625 0 
L 45.90625 32.71875 
Q 45.90625 40.484375 42.875 44.328125 
Q 39.84375 48.1875 33.796875 48.1875 
Q 26.515625 48.1875 22.3125 43.546875 
Q 18.109375 38.921875 18.109375 30.90625 
L 18.109375 0 
L 9.078125 0 
L 9.078125 75.984375 
L 18.109375 75.984375 
L 18.109375 46.1875 
Q 21.34375 51.125 25.703125 53.5625 
Q 30.078125 56 35.796875 56 
Q 45.21875 56 50.046875 50.171875 
Q 54.890625 44.34375 54.890625 33.015625 
z
" id="DejaVuSans-104"/>
     </defs>
     <g transform="translate(81.02 788.063656)scale(0.09 -0.09)">
      <use xlink:href="#DejaVuSans-67"/>
      <use x="69.824219" xlink:href="#DejaVuSans-79"/>
      <use x="148.519531" xlink:href="#DejaVuSans-86"/>
      <use x="216.927734" xlink:href="#DejaVuSans-73"/>
      <use x="246.419922" xlink:href="#DejaVuSans-68"/>
      <use x="323.421875" xlink:href="#DejaVuSans-32"/>
      <use x="355.208984" xlink:href="#DejaVuSans-104"/>
      <use x="418.587891" xlink:href="#DejaVuSans-111"/>
      <use x="479.769531" xlink:href="#DejaVuSans-115"/>
      <use x="531.869141" xlink:href="#DejaVuSans-112"/>
      <use x="595.345703" xlink:href="#DejaVuSans-105"/>
      <use x="623.128906" xlink:href="#DejaVuSans-116"/>
      <use x="662.337891" xlink:href="#DejaVuSans-97"/>
      <use x="723.617188" xlink:href="#DejaVuSans-108"/>
      <use x="751.400391" xlink:href="#DejaVuSans-105"/>
      <use x="779.183594" xlink:href="#DejaVuSans-115"/>
      <use x="831.283203" xlink:href="#DejaVuSans-101"/>
      <use x="892.806641" xlink:href="#DejaVuSans-100"/>
     </g>
    </g>
    <g id="line2d_154">
     <path d="M 55.82 798.123969 
L 73.82 798.123969 
" style="fill:none;stroke:#ff7f00;stroke-linecap:square;stroke-width:1.5;"/>
    </g>
    <g id="line2d_155"/>
    <g id="text_49">
     <!-- COVID positive -->
     <g transform="translate(81.02 801.273969)scale(0.09 -0.09)">
      <use xlink:href="#DejaVuSans-67"/>
      <use x="69.824219" xlink:href="#DejaVuSans-79"/>
      <use x="148.519531" xlink:href="#DejaVuSans-86"/>
      <use x="216.927734" xlink:href="#DejaVuSans-73"/>
      <use x="246.419922" xlink:href="#DejaVuSans-68"/>
      <use x="323.421875" xlink:href="#DejaVuSans-32"/>
      <use x="355.208984" xlink:href="#DejaVuSans-112"/>
      <use x="418.685547" xlink:href="#DejaVuSans-111"/>
      <use x="479.867188" xlink:href="#DejaVuSans-115"/>
      <use x="531.966797" xlink:href="#DejaVuSans-105"/>
      <use x="559.75" xlink:href="#DejaVuSans-116"/>
      <use x="598.958984" xlink:href="#DejaVuSans-105"/>
      <use x="626.742188" xlink:href="#DejaVuSans-118"/>
      <use x="685.921875" xlink:href="#DejaVuSans-101"/>
     </g>
    </g>
    <g id="line2d_156">
     <path d="M 55.82 811.334281 
L 73.82 811.334281 
" style="fill:none;stroke:#4daf4a;stroke-linecap:square;stroke-width:1.5;"/>
    </g>
    <g id="line2d_157"/>
    <g id="text_50">
     <!-- No previous COVID code -->
     <g transform="translate(81.02 814.484281)scale(0.09 -0.09)">
      <use xlink:href="#DejaVuSans-78"/>
      <use x="74.804688" xlink:href="#DejaVuSans-111"/>
      <use x="135.986328" xlink:href="#DejaVuSans-32"/>
      <use x="167.773438" xlink:href="#DejaVuSans-112"/>
      <use x="231.25" xlink:href="#DejaVuSans-114"/>
      <use x="272.332031" xlink:href="#DejaVuSans-101"/>
      <use x="333.855469" xlink:href="#DejaVuSans-118"/>
      <use x="393.035156" xlink:href="#DejaVuSans-105"/>
      <use x="420.818359" xlink:href="#DejaVuSans-111"/>
      <use x="482" xlink:href="#DejaVuSans-117"/>
      <use x="545.378906" xlink:href="#DejaVuSans-115"/>
      <use x="597.478516" xlink:href="#DejaVuSans-32"/>
      <use x="629.265625" xlink:href="#DejaVuSans-67"/>
      <use x="699.089844" xlink:href="#DejaVuSans-79"/>
      <use x="777.785156" xlink:href="#DejaVuSans-86"/>
      <use x="846.193359" xlink:href="#DejaVuSans-73"/>
      <use x="875.685547" xlink:href="#DejaVuSans-68"/>
      <use x="952.6875" xlink:href="#DejaVuSans-32"/>
      <use x="984.474609" xlink:href="#DejaVuSans-99"/>
      <use x="1039.455078" xlink:href="#DejaVuSans-111"/>
      <use x="1100.636719" xlink:href="#DejaVuSans-100"/>
      <use x="1164.113281" xlink:href="#DejaVuSans-101"/>
     </g>
    </g>
   </g>
  </g>
 </g>
 <defs>
  <clipPath id="p34bb1e9d92">
   <rect height="174.644" width="651.985" x="47.72" y="26.88"/>
  </clipPath>
  <clipPath id="p4fca1a83ef">
   <rect height="174.644" width="651.985" x="47.72" y="234.524"/>
  </clipPath>
  <clipPath id="p6fec459628">
   <rect height="174.644" width="651.985" x="47.72" y="442.168"/>
  </clipPath>
  <clipPath id="pbbfc371fe6">
   <rect height="174.644" width="651.985" x="47.72" y="649.812"/>
  </clipPath>
 </defs>
</svg>
